<?xml version="1.0" standalone="no"?><svg xmlns:xlink="http://www.w3.org/1999/xlink" xmlns="http://www.w3.org/2000/svg" viewBox="0 0 2100 900.0021077332734" preserveAspectRatio="xMaxYMax slice"><g transform="scale(1.475413291366022)"><rect x="0" y="0" width="1423.3333333333333" height="610" fill="#E6FAF5"/><path d="M 172.83 71.16 A 20.33 20.33 0 0 1  193.16000000000003 50.83 L 172.83 71.16 A 20.33 20.33 0 0 0 193.16000000000003 50.83" fill="#73fdd9"/><rect x="294.8333333333333" y="91.5" width="20.333333333333332" height="20.333333333333332" fill="#E6FAF5"/><path d="M 305 91.5 A 10.17 10.17 0 0 1  315.17 101.67 L 305 91.5 A 10.17 10.17 0 0 0 315.17 101.67" fill="#e5faf5"/><rect x="457.5" y="91.5" width="20.333333333333332" height="20.333333333333332" fill="#E6FAF5"/><polygon points="467.67,91.5 477.84000000000003,101.67 467.67,101.67" fill="#a0fce4"/><polygon points="1026.83,91.5 1047.1599999999999,111.83 1026.83,111.83" fill="#cffbef"/><polygon points="1128.5,91.5 1128.5,111.83 1108.17,111.83" fill="#254be2"/><path d="M 1270.83 111.83 A 20.33 20.33 0 0 1  1291.1599999999999 91.5 L 1270.83 111.83 A 20.33 20.33 0 0 0 1291.1599999999999 91.5" fill="#5afed2"/><path d="M 1392.83 91.5 A 20.33 20.33 0 0 1  1413.1599999999999 111.83 L 1392.83 91.5 A 20.33 20.33 0 0 0 1413.1599999999999 111.83" fill="#3fffcc"/><polygon points="71.16,132.17 71.16,152.5 50.83,152.5" fill="#98b3ed"/><rect x="91.5" y="132.16666666666666" width="20.333333333333332" height="20.333333333333332" fill="#E6FAF5"/><rect x="335.5" y="132.16666666666666" width="20.333333333333332" height="20.333333333333332" fill="#E6FAF5"/><polygon points="345.67,132.17 355.84000000000003,132.17 345.67,142.33999999999997" fill="#c8fbee"/><polygon points="345.67,142.33 355.84000000000003,152.5 345.67,152.5" fill="#3f63e5"/><rect x="376.1666666666667" y="132.16666666666666" width="20.333333333333332" height="20.333333333333332" fill="#E6FAF5"/><polygon points="386.33,142.33 396.5,142.33 396.5,152.5" fill="#7896ea"/><polygon points="681.1600000000001,132.17 681.1600000000001,152.5 660.83,152.5" fill="#2b51e3"/><path d="M 701.5 132.17 A 20.33 20.33 0 0 1  721.83 152.5 L 701.5 132.17 A 20.33 20.33 0 0 0 721.83 152.5" fill="#89a5ec"/><rect x="823.4999999999999" y="132.16666666666666" width="20.333333333333332" height="20.333333333333332" fill="#E6FAF5"/><polygon points="833.67,132.17 843.8399999999999,142.33999999999997 833.67,142.33999999999997" fill="#a5fce5"/><polygon points="864.17,132.17 884.5,132.17 864.17,152.5" fill="#bcd4f1"/><path d="M 1026.83 132.17 A 20.33 20.33 0 0 1  1047.1599999999999 152.5 L 1026.83 132.17 A 20.33 20.33 0 0 0 1047.1599999999999 152.5" fill="#9ab5ee"/><polygon points="1108.17,132.17 1128.5,152.5 1108.17,152.5" fill="#cdfbef"/><rect x="254.16666666666666" y="172.83333333333331" width="20.333333333333332" height="20.333333333333332" fill="#E6FAF5"/><polygon points="254.17,172.83 264.34,183 254.17,183" fill="#d9faf2"/><polygon points="254.17,183 264.34,193.17 254.17,193.17" fill="#8cfddf"/><path d="M 264.33 183 A 10.17 10.17 0 0 1  274.5 193.17 L 264.33 183 A 10.17 10.17 0 0 0 274.5 193.17" fill="#65fed5"/><rect x="335.5" y="172.83333333333331" width="20.333333333333332" height="20.333333333333332" fill="#E6FAF5"/><polygon points="345.67,172.83 355.84000000000003,172.83 355.84000000000003,183" fill="#b3fbe9"/><path d="M 335.5 193.17 A 10.17 10.17 0 0 1  345.67 183 L 335.5 193.17 A 10.17 10.17 0 0 0 345.67 183" fill="#c6ddf2"/><rect x="376.1666666666667" y="172.83333333333331" width="20.333333333333332" height="20.333333333333332" fill="#E6FAF5"/><path d="M 376.17 183 A 10.17 10.17 0 0 1  386.34000000000003 172.83 L 376.17 183 A 10.17 10.17 0 0 0 386.34000000000003 172.83" fill="#3fffcc"/><path d="M 386.33 183 A 10.17 10.17 0 0 1  396.5 193.17 L 386.33 183 A 10.17 10.17 0 0 0 396.5 193.17" fill="#a0baee"/><path d="M 498.17 172.83 A 20.33 20.33 0 0 1  518.5 193.16000000000003 L 498.17 172.83 A 20.33 20.33 0 0 0 518.5 193.16000000000003" fill="#58fed2"/><rect x="620.1666666666666" y="172.83333333333331" width="20.333333333333332" height="20.333333333333332" fill="#E6FAF5"/><path d="M 620.17 172.83 A 10.17 10.17 0 0 1  630.3399999999999 183 L 620.17 172.83 A 10.17 10.17 0 0 0 630.3399999999999 183" fill="#8dfcdf"/><rect x="701.4999999999999" y="172.83333333333331" width="20.333333333333332" height="20.333333333333332" fill="#E6FAF5"/><path d="M 701.5 183 A 10.17 10.17 0 0 1  711.67 172.83 L 701.5 183 A 10.17 10.17 0 0 0 711.67 172.83" fill="#819eeb"/><polygon points="701.5,183 711.67,183 701.5,193.17" fill="#aac3ef"/><polygon points="864.17,172.83 884.5,193.16000000000003 864.17,193.16000000000003" fill="#7795ea"/><rect x="945.4999999999999" y="172.83333333333331" width="20.333333333333332" height="20.333333333333332" fill="#E6FAF5"/><polygon points="1026.83,172.83 1047.1599999999999,193.16000000000003 1026.83,193.16000000000003" fill="#defaf3"/><rect x="1230.1666666666667" y="172.83333333333331" width="20.333333333333332" height="20.333333333333332" fill="#E6FAF5"/><polygon points="1291.1599999999999,172.83 1291.1599999999999,193.16000000000003 1270.83,193.16000000000003" fill="#bcfbeb"/><path d="M 132.17 213.5 A 20.33 20.33 0 0 1  152.5 233.82999999999998 L 132.17 213.5 A 20.33 20.33 0 0 0 152.5 233.82999999999998" fill="#5f7fe8"/><polygon points="498.17,213.5 518.5,213.5 498.17,233.82999999999998" fill="#e6faf5"/><rect x="538.8333333333333" y="213.49999999999997" width="20.333333333333332" height="20.333333333333332" fill="#E6FAF5"/><path d="M 549 223.67 A 10.17 10.17 0 0 1  559.17 233.83999999999997 L 549 223.67 A 10.17 10.17 0 0 0 559.17 233.83999999999997" fill="#70fdd8"/><rect x="579.4999999999999" y="213.49999999999997" width="20.333333333333332" height="20.333333333333332" fill="#E6FAF5"/><rect x="742.1666666666666" y="213.49999999999997" width="20.333333333333332" height="20.333333333333332" fill="#E6FAF5"/><path d="M 742.17 213.5 A 10.17 10.17 0 0 1  752.3399999999999 223.67 L 742.17 213.5 A 10.17 10.17 0 0 0 752.3399999999999 223.67" fill="#274de2"/><path d="M 742.17 223.67 A 10.17 10.17 0 0 1  752.3399999999999 233.83999999999997 L 742.17 223.67 A 10.17 10.17 0 0 0 752.3399999999999 233.83999999999997" fill="#ddf2f4"/><path d="M 752.33 233.83999999999997 A 10.17 10.17 0 0 1  762.5 223.67 L 752.33 233.83999999999997 A 10.17 10.17 0 0 0 762.5 223.67" fill="#9eb9ee"/><rect x="823.4999999999999" y="213.49999999999997" width="20.333333333333332" height="20.333333333333332" fill="#E6FAF5"/><polygon points="823.5,223.67 833.67,233.83999999999997 823.5,233.83999999999997" fill="#88fdde"/><rect x="945.4999999999999" y="213.49999999999997" width="20.333333333333332" height="20.333333333333332" fill="#E6FAF5"/><path d="M 955.67 223.67 A 10.17 10.17 0 0 1  965.8399999999999 233.83999999999997 L 955.67 223.67 A 10.17 10.17 0 0 0 965.8399999999999 233.83999999999997" fill="#54fed1"/><polygon points="1230.17,213.5 1250.5,213.5 1250.5,233.82999999999998" fill="#b7fbe9"/><rect x="10.166666666666666" y="254.16666666666666" width="20.333333333333332" height="20.333333333333332" fill="#E6FAF5"/><path d="M 10.17 264.34 A 10.17 10.17 0 0 1  20.34 254.17 L 10.17 264.34 A 10.17 10.17 0 0 0 20.34 254.17" fill="#daeff4"/><polygon points="20.33,254.17 30.5,254.17 30.5,264.34" fill="#dafaf2"/><polygon points="91.5,254.17 111.83,274.5 91.5,274.5" fill="#89a6ec"/><polygon points="172.83,254.17 193.16000000000003,254.17 193.16000000000003,274.5" fill="#8cfddf"/><path d="M 213.5 254.17 A 20.33 20.33 0 0 1  233.82999999999998 274.5 L 213.5 254.17 A 20.33 20.33 0 0 0 233.82999999999998 274.5" fill="#b1caf0"/><rect x="294.8333333333333" y="254.16666666666666" width="20.333333333333332" height="20.333333333333332" fill="#E6FAF5"/><polygon points="305,264.33 315.17,264.33 315.17,274.5" fill="#6b8ae9"/><polygon points="376.17,254.17 396.5,274.5 376.17,274.5" fill="#55fed1"/><polygon points="457.5,254.17 477.83,274.5 457.5,274.5" fill="#e0f4f4"/><polygon points="538.83,254.17 559.1600000000001,254.17 559.1600000000001,274.5" fill="#b4fbe9"/><polygon points="599.83,254.17 599.83,274.5 579.5,274.5" fill="#a6fce5"/><rect x="620.1666666666666" y="254.16666666666666" width="20.333333333333332" height="20.333333333333332" fill="#E6FAF5"/><polygon points="630.3399999999999,254.17 630.3399999999999,264.34 620.17,264.34" fill="#39ffcb"/><polygon points="630.33,254.17 640.5,254.17 640.5,264.34" fill="#d5eaf3"/><polygon points="620.17,264.33 630.3399999999999,264.33 620.17,274.5" fill="#a6c0ef"/><path d="M 660.83 254.17 A 20.33 20.33 0 0 1  681.1600000000001 274.5 L 660.83 254.17 A 20.33 20.33 0 0 0 681.1600000000001 274.5" fill="#43ffcd"/><rect x="701.4999999999999" y="254.16666666666666" width="20.333333333333332" height="20.333333333333332" fill="#E6FAF5"/><polygon points="701.5,254.17 711.67,254.17 711.67,264.34" fill="#3156e3"/><path d="M 782.83 274.5 A 20.33 20.33 0 0 1  803.1600000000001 254.17 L 782.83 274.5 A 20.33 20.33 0 0 0 803.1600000000001 254.17" fill="#c1fbec"/><polygon points="864.17,254.17 884.5,254.17 864.17,274.5" fill="#264ce2"/><rect x="904.8333333333333" y="254.16666666666666" width="20.333333333333332" height="20.333333333333332" fill="#E6FAF5"/><polygon points="904.83,254.17 915,254.17 915,264.34" fill="#5bfed3"/><polygon points="915,264.33 925.17,274.5 915,274.5" fill="#7594ea"/><path d="M 945.5 254.17 A 20.33 20.33 0 0 1  965.83 274.5 L 945.5 254.17 A 20.33 20.33 0 0 0 965.83 274.5" fill="#4a6ce6"/><path d="M 1108.17 274.5 A 20.33 20.33 0 0 1  1128.5 254.17 L 1108.17 274.5 A 20.33 20.33 0 0 0 1128.5 254.17" fill="#44ffcd"/><polygon points="1270.83,254.17 1291.1599999999999,254.17 1291.1599999999999,274.5" fill="#6182e8"/><polygon points="1311.5,254.17 1331.83,254.17 1311.5,274.5" fill="#40ffcc"/><rect x="1392.8333333333333" y="254.16666666666666" width="20.333333333333332" height="20.333333333333332" fill="#E6FAF5"/><path d="M 1392.83 254.17 A 10.17 10.17 0 0 1  1403 264.34 L 1392.83 254.17 A 10.17 10.17 0 0 0 1403 264.34" fill="#78fdda"/><polygon points="1392.83,264.33 1403,264.33 1403,274.5" fill="#4f71e6"/><path d="M 132.17 315.15999999999997 A 20.33 20.33 0 0 1  152.5 294.83 L 132.17 315.15999999999997 A 20.33 20.33 0 0 0 152.5 294.83" fill="#77fdda"/><polygon points="213.5,294.83 233.82999999999998,294.83 233.82999999999998,315.15999999999997" fill="#87a3ec"/><rect x="254.16666666666666" y="294.8333333333333" width="20.333333333333332" height="20.333333333333332" fill="#E6FAF5"/><path d="M 254.17 305 A 10.17 10.17 0 0 1  264.34 294.83 L 254.17 305 A 10.17 10.17 0 0 0 264.34 294.83" fill="#a6fce5"/><path d="M 264.33 305 A 10.17 10.17 0 0 1  274.5 294.83 L 264.33 305 A 10.17 10.17 0 0 0 274.5 294.83" fill="#ddf2f4"/><path d="M 254.17 305 A 10.17 10.17 0 0 1  264.34 315.17 L 254.17 305 A 10.17 10.17 0 0 0 264.34 315.17" fill="#5ffed4"/><path d="M 294.83 294.83 A 20.33 20.33 0 0 1  315.15999999999997 315.15999999999997 L 294.83 294.83 A 20.33 20.33 0 0 0 315.15999999999997 315.15999999999997" fill="#5879e7"/><polygon points="335.5,294.83 355.83,294.83 335.5,315.15999999999997" fill="#b4ccf0"/><rect x="376.1666666666667" y="294.8333333333333" width="20.333333333333332" height="20.333333333333332" fill="#E6FAF5"/><polygon points="376.17,294.83 386.34000000000003,294.83 386.34000000000003,305" fill="#4afecf"/><polygon points="376.17,305 386.34000000000003,305 386.34000000000003,315.17" fill="#4cfecf"/><rect x="416.8333333333333" y="294.8333333333333" width="20.333333333333332" height="20.333333333333332" fill="#E6FAF5"/><polygon points="427,305 427,315.17 416.83,315.17" fill="#8ba7ec"/><polygon points="457.5,294.83 477.83,294.83 477.83,315.15999999999997" fill="#8ba7ec"/><rect x="538.8333333333333" y="294.8333333333333" width="20.333333333333332" height="20.333333333333332" fill="#E6FAF5"/><polygon points="549,294.83 559.17,294.83 559.17,305" fill="#6ffdd8"/><path d="M 538.83 315.17 A 10.17 10.17 0 0 1  549 305 L 538.83 315.17 A 10.17 10.17 0 0 0 549 305" fill="#7896ea"/><polygon points="549,305 559.17,305 559.17,315.17" fill="#72fdd8"/><polygon points="579.5,294.83 599.83,294.83 579.5,315.15999999999997" fill="#89fdde"/><rect x="620.1666666666666" y="294.8333333333333" width="20.333333333333332" height="20.333333333333332" fill="#E6FAF5"/><path d="M 630.33 294.83 A 10.17 10.17 0 0 1  640.5 305 L 630.33 294.83 A 10.17 10.17 0 0 0 640.5 305" fill="#afc8f0"/><path d="M 620.17 305 A 10.17 10.17 0 0 1  630.3399999999999 315.17 L 620.17 305 A 10.17 10.17 0 0 0 630.3399999999999 315.17" fill="#5879e7"/><rect x="701.4999999999999" y="294.8333333333333" width="20.333333333333332" height="20.333333333333332" fill="#E6FAF5"/><path d="M 701.5 294.83 A 10.17 10.17 0 0 1  711.67 305 L 701.5 294.83 A 10.17 10.17 0 0 0 711.67 305" fill="#7a98eb"/><polygon points="711.67,294.83 721.8399999999999,305 711.67,305" fill="#b5cef0"/><path d="M 711.67 315.17 A 10.17 10.17 0 0 1  721.8399999999999 305 L 711.67 315.17 A 10.17 10.17 0 0 0 721.8399999999999 305" fill="#7afddb"/><rect x="742.1666666666666" y="294.8333333333333" width="20.333333333333332" height="20.333333333333332" fill="#E6FAF5"/><polygon points="752.33,294.83 762.5,294.83 752.33,305" fill="#2b50e3"/><polygon points="782.83,294.83 803.1600000000001,294.83 803.1600000000001,315.15999999999997" fill="#5c7de8"/><path d="M 823.5 294.83 A 20.33 20.33 0 0 1  843.83 315.15999999999997 L 823.5 294.83 A 20.33 20.33 0 0 0 843.83 315.15999999999997" fill="#d5eaf3"/><rect x="864.1666666666666" y="294.8333333333333" width="20.333333333333332" height="20.333333333333332" fill="#E6FAF5"/><path d="M 874.33 294.83 A 10.17 10.17 0 0 1  884.5 305 L 874.33 294.83 A 10.17 10.17 0 0 0 884.5 305" fill="#5d7de8"/><path d="M 864.17 315.17 A 10.17 10.17 0 0 1  874.3399999999999 305 L 864.17 315.17 A 10.17 10.17 0 0 0 874.3399999999999 305" fill="#3f62e5"/><path d="M 874.33 305 A 10.17 10.17 0 0 1  884.5 315.17 L 874.33 305 A 10.17 10.17 0 0 0 884.5 315.17" fill="#b3ccf0"/><polygon points="904.83,294.83 925.1600000000001,294.83 904.83,315.15999999999997" fill="#e4faf4"/><rect x="945.4999999999999" y="294.8333333333333" width="20.333333333333332" height="20.333333333333332" fill="#E6FAF5"/><polygon points="955.67,294.83 955.67,305 945.5,305" fill="#48fece"/><path d="M 945.5 315.17 A 10.17 10.17 0 0 1  955.67 305 L 945.5 315.17 A 10.17 10.17 0 0 0 955.67 305" fill="#56fed2"/><polygon points="955.67,305 965.8399999999999,315.17 955.67,315.17" fill="#47fece"/><rect x="1148.8333333333333" y="294.8333333333333" width="20.333333333333332" height="20.333333333333332" fill="#E6FAF5"/><path d="M 1148.83 294.83 A 10.17 10.17 0 0 1  1159 305 L 1148.83 294.83 A 10.17 10.17 0 0 0 1159 305" fill="#8efcdf"/><polygon points="1159,294.83 1169.17,294.83 1169.17,305" fill="#a0baee"/><path d="M 1148.83 305 A 10.17 10.17 0 0 1  1159 315.17 L 1148.83 305 A 10.17 10.17 0 0 0 1159 315.17" fill="#54fed1"/><polygon points="1392.83,294.83 1413.1599999999999,294.83 1413.1599999999999,315.15999999999997" fill="#3e61e5"/><rect x="50.83333333333333" y="335.5" width="20.333333333333332" height="20.333333333333332" fill="#E6FAF5"/><polygon points="50.83,335.5 61,335.5 50.83,345.67" fill="#6686e9"/><path d="M 61 335.5 A 10.17 10.17 0 0 1  71.17 345.67 L 61 335.5 A 10.17 10.17 0 0 0 71.17 345.67" fill="#2147e2"/><rect x="91.5" y="335.5" width="20.333333333333332" height="20.333333333333332" fill="#E6FAF5"/><polygon points="91.5,335.5 101.67,335.5 91.5,345.67" fill="#adfce7"/><path d="M 101.67 345.67 A 10.17 10.17 0 0 1  111.84 335.5 L 101.67 345.67 A 10.17 10.17 0 0 0 111.84 335.5" fill="#c5fbed"/><path d="M 91.5 345.67 A 10.17 10.17 0 0 1  101.67 355.84000000000003 L 91.5 345.67 A 10.17 10.17 0 0 0 101.67 355.84000000000003" fill="#c5fbed"/><polygon points="213.5,335.5 233.82999999999998,335.5 233.82999999999998,355.83" fill="#2d52e3"/><path d="M 254.17 335.5 A 20.33 20.33 0 0 1  274.5 355.83 L 254.17 335.5 A 20.33 20.33 0 0 0 274.5 355.83" fill="#4ffed0"/><path d="M 294.83 335.5 A 20.33 20.33 0 0 1  315.15999999999997 355.83 L 294.83 335.5 A 20.33 20.33 0 0 0 315.15999999999997 355.83" fill="#e5f9f5"/><path d="M 335.5 335.5 A 20.33 20.33 0 0 1  355.83 355.83 L 335.5 335.5 A 20.33 20.33 0 0 0 355.83 355.83" fill="#68fed6"/><path d="M 376.17 335.5 A 20.33 20.33 0 0 1  396.5 355.83 L 376.17 335.5 A 20.33 20.33 0 0 0 396.5 355.83" fill="#4f71e6"/><rect x="457.5" y="335.5" width="20.333333333333332" height="20.333333333333332" fill="#E6FAF5"/><path d="M 457.5 345.67 A 10.17 10.17 0 0 1  467.67 335.5 L 457.5 345.67 A 10.17 10.17 0 0 0 467.67 335.5" fill="#8afdde"/><path d="M 467.67 345.67 A 10.17 10.17 0 0 1  477.84000000000003 335.5 L 467.67 345.67 A 10.17 10.17 0 0 0 477.84000000000003 335.5" fill="#7493ea"/><rect x="620.1666666666666" y="335.5" width="20.333333333333332" height="20.333333333333332" fill="#E6FAF5"/><polygon points="620.17,335.5 630.3399999999999,345.67 620.17,345.67" fill="#48fece"/><path d="M 630.33 335.5 A 10.17 10.17 0 0 1  640.5 345.67 L 630.33 335.5 A 10.17 10.17 0 0 0 640.5 345.67" fill="#c9dff2"/><path d="M 620.17 345.67 A 10.17 10.17 0 0 1  630.3399999999999 355.84000000000003 L 620.17 345.67 A 10.17 10.17 0 0 0 630.3399999999999 355.84000000000003" fill="#b9d1f1"/><path d="M 630.33 355.84000000000003 A 10.17 10.17 0 0 1  640.5 345.67 L 630.33 355.84000000000003 A 10.17 10.17 0 0 0 640.5 345.67" fill="#93afed"/><rect x="701.4999999999999" y="335.5" width="20.333333333333332" height="20.333333333333332" fill="#E6FAF5"/><polygon points="742.17,335.5 762.5,335.5 742.17,355.83" fill="#9cfce3"/><rect x="782.8333333333333" y="335.5" width="20.333333333333332" height="20.333333333333332" fill="#E6FAF5"/><polygon points="782.83,335.5 793,335.5 793,345.67" fill="#5e7ee8"/><path d="M 782.83 355.84000000000003 A 10.17 10.17 0 0 1  793 345.67 L 782.83 355.84000000000003 A 10.17 10.17 0 0 0 793 345.67" fill="#96fce1"/><polygon points="793,345.67 803.17,345.67 793,355.84000000000003" fill="#59fed2"/><path d="M 823.5 335.5 A 20.33 20.33 0 0 1  843.83 355.83 L 823.5 335.5 A 20.33 20.33 0 0 0 843.83 355.83" fill="#b1fbe8"/><path d="M 864.17 335.5 A 20.33 20.33 0 0 1  884.5 355.83 L 864.17 335.5 A 20.33 20.33 0 0 0 884.5 355.83" fill="#99fce2"/><rect x="904.8333333333333" y="335.5" width="20.333333333333332" height="20.333333333333332" fill="#E6FAF5"/><polygon points="904.83,335.5 915,345.67 904.83,345.67" fill="#d9faf2"/><polygon points="915,335.5 925.17,345.67 915,345.67" fill="#5677e7"/><polygon points="915,345.67 925.17,345.67 915,355.84000000000003" fill="#b8d0f1"/><path d="M 945.5 335.5 A 20.33 20.33 0 0 1  965.83 355.83 L 945.5 335.5 A 20.33 20.33 0 0 0 965.83 355.83" fill="#50fed0"/><polygon points="1087.83,335.5 1087.83,355.83 1067.5,355.83" fill="#3bffcb"/><polygon points="1250.5,335.5 1250.5,355.83 1230.17,355.83" fill="#93fce1"/><path d="M 1270.83 335.5 A 20.33 20.33 0 0 1  1291.1599999999999 355.83 L 1270.83 335.5 A 20.33 20.33 0 0 0 1291.1599999999999 355.83" fill="#defaf3"/><path d="M 1311.5 335.5 A 20.33 20.33 0 0 1  1331.83 355.83 L 1311.5 335.5 A 20.33 20.33 0 0 0 1331.83 355.83" fill="#94b0ed"/><rect x="1352.1666666666667" y="335.5" width="20.333333333333332" height="20.333333333333332" fill="#E6FAF5"/><polygon points="1362.33,335.5 1372.5,335.5 1362.33,345.67" fill="#50fed0"/><polygon points="1352.17,345.67 1362.3400000000001,355.84000000000003 1352.17,355.84000000000003" fill="#7896ea"/><path d="M 1362.33 345.67 A 10.17 10.17 0 0 1  1372.5 355.84000000000003 L 1362.33 345.67 A 10.17 10.17 0 0 0 1372.5 355.84000000000003" fill="#78fdda"/><path d="M 10.17 396.5 A 20.33 20.33 0 0 1  30.5 376.17 L 10.17 396.5 A 20.33 20.33 0 0 0 30.5 376.17" fill="#76fdda"/><rect x="50.83333333333333" y="376.1666666666667" width="20.333333333333332" height="20.333333333333332" fill="#E6FAF5"/><polygon points="50.83,376.17 61,386.34000000000003 50.83,386.34000000000003" fill="#e2faf4"/><polygon points="71.17,376.17 71.17,386.34000000000003 61,386.34000000000003" fill="#3cffcb"/><polygon points="61,386.33 71.17,386.33 71.17,396.5" fill="#cdfbef"/><rect x="172.83333333333331" y="376.1666666666667" width="20.333333333333332" height="20.333333333333332" fill="#E6FAF5"/><polygon points="172.83,376.17 183,376.17 183,386.34000000000003" fill="#e0faf3"/><polygon points="183,376.17 193.17,376.17 193.17,386.34000000000003" fill="#1940e1"/><polygon points="172.83,386.33 183,386.33 172.83,396.5" fill="#809eeb"/><polygon points="183,386.33 193.17,396.5 183,396.5" fill="#4a6ce6"/><rect x="213.49999999999997" y="376.1666666666667" width="20.333333333333332" height="20.333333333333332" fill="#E6FAF5"/><path d="M 223.67 386.34000000000003 A 10.17 10.17 0 0 1  233.83999999999997 376.17 L 223.67 386.34000000000003 A 10.17 10.17 0 0 0 233.83999999999997 376.17" fill="#8afdde"/><path d="M 223.67 386.33 A 10.17 10.17 0 0 1  233.83999999999997 396.5 L 223.67 386.33 A 10.17 10.17 0 0 0 233.83999999999997 396.5" fill="#81fddc"/><rect x="254.16666666666666" y="376.1666666666667" width="20.333333333333332" height="20.333333333333332" fill="#E6FAF5"/><polygon points="254.17,376.17 264.34,376.17 254.17,386.34000000000003" fill="#d2e7f3"/><polygon points="274.5,376.17 274.5,386.34000000000003 264.33,386.34000000000003" fill="#80fddc"/><polygon points="254.17,386.33 264.34,386.33 264.34,396.5" fill="#58fed2"/><path d="M 294.83 396.5 A 20.33 20.33 0 0 1  315.15999999999997 376.17 L 294.83 396.5 A 20.33 20.33 0 0 0 315.15999999999997 376.17" fill="#8efcdf"/><rect x="335.5" y="376.1666666666667" width="20.333333333333332" height="20.333333333333332" fill="#E6FAF5"/><path d="M 335.5 376.17 A 10.17 10.17 0 0 1  345.67 386.34000000000003 L 335.5 376.17 A 10.17 10.17 0 0 0 345.67 386.34000000000003" fill="#a8c2ef"/><path d="M 345.67 376.17 A 10.17 10.17 0 0 1  355.84000000000003 386.34000000000003 L 345.67 376.17 A 10.17 10.17 0 0 0 355.84000000000003 386.34000000000003" fill="#6282e8"/><path d="M 345.67 396.5 A 10.17 10.17 0 0 1  355.84000000000003 386.33 L 345.67 396.5 A 10.17 10.17 0 0 0 355.84000000000003 386.33" fill="#98fce2"/><rect x="376.1666666666667" y="376.1666666666667" width="20.333333333333332" height="20.333333333333332" fill="#E6FAF5"/><path d="M 376.17 386.34000000000003 A 10.17 10.17 0 0 1  386.34000000000003 376.17 L 376.17 386.34000000000003 A 10.17 10.17 0 0 0 386.34000000000003 376.17" fill="#95fce1"/><path d="M 376.17 386.33 A 10.17 10.17 0 0 1  386.34000000000003 396.5 L 376.17 386.33 A 10.17 10.17 0 0 0 386.34000000000003 396.5" fill="#1b42e1"/><polygon points="386.33,386.33 396.5,396.5 386.33,396.5" fill="#6282e8"/><rect x="416.8333333333333" y="376.1666666666667" width="20.333333333333332" height="20.333333333333332" fill="#E6FAF5"/><polygon points="416.83,376.17 427,376.17 427,386.34000000000003" fill="#38ffca"/><rect x="457.5" y="376.1666666666667" width="20.333333333333332" height="20.333333333333332" fill="#E6FAF5"/><path d="M 467.67 386.34000000000003 A 10.17 10.17 0 0 1  477.84000000000003 376.17 L 467.67 386.34000000000003 A 10.17 10.17 0 0 0 477.84000000000003 376.17" fill="#a4fce5"/><polygon points="457.5,386.33 467.67,386.33 457.5,396.5" fill="#a5bfef"/><polygon points="467.67,386.33 477.84000000000003,396.5 467.67,396.5" fill="#5d7ee8"/><polygon points="538.83,376.17 559.1600000000001,376.17 559.1600000000001,396.5" fill="#97fce2"/><path d="M 579.5 376.17 A 20.33 20.33 0 0 1  599.83 396.5 L 579.5 376.17 A 20.33 20.33 0 0 0 599.83 396.5" fill="#9ffce3"/><rect x="620.1666666666666" y="376.1666666666667" width="20.333333333333332" height="20.333333333333332" fill="#E6FAF5"/><path d="M 620.17 376.17 A 10.17 10.17 0 0 1  630.3399999999999 386.34000000000003 L 620.17 376.17 A 10.17 10.17 0 0 0 630.3399999999999 386.34000000000003" fill="#b7fbe9"/><polygon points="630.3399999999999,386.33 630.3399999999999,396.5 620.17,396.5" fill="#61fed4"/><path d="M 630.33 386.33 A 10.17 10.17 0 0 1  640.5 396.5 L 630.33 386.33 A 10.17 10.17 0 0 0 640.5 396.5" fill="#4ffed0"/><path d="M 660.83 396.5 A 20.33 20.33 0 0 1  681.1600000000001 376.17 L 660.83 396.5 A 20.33 20.33 0 0 0 681.1600000000001 376.17" fill="#e0faf4"/><polygon points="782.83,376.17 803.1600000000001,376.17 782.83,396.5" fill="#e6faf5"/><polygon points="823.5,376.17 843.83,376.17 843.83,396.5" fill="#aac4ef"/><rect x="904.8333333333333" y="376.1666666666667" width="20.333333333333332" height="20.333333333333332" fill="#E6FAF5"/><polygon points="915,376.17 915,386.34000000000003 904.83,386.34000000000003" fill="#d8faf2"/><polygon points="915,376.17 925.17,386.34000000000003 915,386.34000000000003" fill="#cefbef"/><polygon points="915,386.33 915,396.5 904.83,396.5" fill="#a5fce5"/><path d="M 915 396.5 A 10.17 10.17 0 0 1  925.17 386.33 L 915 396.5 A 10.17 10.17 0 0 0 925.17 386.33" fill="#6888e9"/><rect x="945.4999999999999" y="376.1666666666667" width="20.333333333333332" height="20.333333333333332" fill="#E6FAF5"/><path d="M 945.5 376.17 A 10.17 10.17 0 0 1  955.67 386.34000000000003 L 945.5 376.17 A 10.17 10.17 0 0 0 955.67 386.34000000000003" fill="#e4faf4"/><path d="M 955.67 386.34000000000003 A 10.17 10.17 0 0 1  965.8399999999999 376.17 L 955.67 386.34000000000003 A 10.17 10.17 0 0 0 965.8399999999999 376.17" fill="#cde4f3"/><path d="M 955.67 396.5 A 10.17 10.17 0 0 1  965.8399999999999 386.33 L 955.67 396.5 A 10.17 10.17 0 0 0 965.8399999999999 386.33" fill="#cdfbef"/><rect x="986.1666666666666" y="376.1666666666667" width="20.333333333333332" height="20.333333333333332" fill="#E6FAF5"/><path d="M 986.17 386.34000000000003 A 10.17 10.17 0 0 1  996.3399999999999 376.17 L 986.17 386.34000000000003 A 10.17 10.17 0 0 0 996.3399999999999 376.17" fill="#7afdda"/><path d="M 996.33 376.17 A 10.17 10.17 0 0 1  1006.5 386.34000000000003 L 996.33 376.17 A 10.17 10.17 0 0 0 1006.5 386.34000000000003" fill="#70fdd8"/><path d="M 986.17 396.5 A 10.17 10.17 0 0 1  996.3399999999999 386.33 L 986.17 396.5 A 10.17 10.17 0 0 0 996.3399999999999 386.33" fill="#9afce2"/><polygon points="996.33,386.33 1006.5,396.5 996.33,396.5" fill="#5cfed3"/><rect x="1026.8333333333333" y="376.1666666666667" width="20.333333333333332" height="20.333333333333332" fill="#E6FAF5"/><polygon points="1026.83,376.17 1037,376.17 1037,386.34000000000003" fill="#7efddb"/><path d="M 1037 386.34000000000003 A 10.17 10.17 0 0 1  1047.17 376.17 L 1037 386.34000000000003 A 10.17 10.17 0 0 0 1047.17 376.17" fill="#7cfddb"/><rect x="1067.5" y="376.1666666666667" width="20.333333333333332" height="20.333333333333332" fill="#E6FAF5"/><path d="M 1067.5 376.17 A 10.17 10.17 0 0 1  1077.67 386.34000000000003 L 1067.5 376.17 A 10.17 10.17 0 0 0 1077.67 386.34000000000003" fill="#708fea"/><polygon points="1087.8400000000001,376.17 1087.8400000000001,386.34000000000003 1077.67,386.34000000000003" fill="#c8fbee"/><polygon points="1077.67,386.33 1087.8400000000001,386.33 1077.67,396.5" fill="#2046e2"/><rect x="1148.8333333333333" y="376.1666666666667" width="20.333333333333332" height="20.333333333333332" fill="#E6FAF5"/><polygon points="1148.83,376.17 1159,376.17 1148.83,386.34000000000003" fill="#e2faf4"/><polygon points="1159,376.17 1169.17,386.34000000000003 1159,386.34000000000003" fill="#5576e7"/><path d="M 1148.83 396.5 A 10.17 10.17 0 0 1  1159 386.33 L 1148.83 396.5 A 10.17 10.17 0 0 0 1159 386.33" fill="#2c51e3"/><polygon points="1159,386.33 1169.17,386.33 1169.17,396.5" fill="#90fce0"/><path d="M 1189.5 376.17 A 20.33 20.33 0 0 1  1209.83 396.5 L 1189.5 376.17 A 20.33 20.33 0 0 0 1209.83 396.5" fill="#c4dbf2"/><polygon points="1250.5,376.17 1250.5,396.5 1230.17,396.5" fill="#5273e7"/><rect x="1270.8333333333333" y="376.1666666666667" width="20.333333333333332" height="20.333333333333332" fill="#E6FAF5"/><polygon points="1281,376.17 1281,386.34000000000003 1270.83,386.34000000000003" fill="#6383e8"/><polygon points="1281,386.33 1281,396.5 1270.83,396.5" fill="#afc8f0"/><polygon points="1291.17,386.33 1291.17,396.5 1281,396.5" fill="#35ffca"/><polygon points="1311.5,376.17 1331.83,376.17 1331.83,396.5" fill="#65fed5"/><rect x="1352.1666666666667" y="376.1666666666667" width="20.333333333333332" height="20.333333333333332" fill="#E6FAF5"/><polygon points="1352.17,376.17 1362.3400000000001,386.34000000000003 1352.17,386.34000000000003" fill="#e6faf5"/><polygon points="1372.5,386.33 1372.5,396.5 1362.33,396.5" fill="#e2f6f5"/><polygon points="1392.83,376.17 1413.1599999999999,376.17 1392.83,396.5" fill="#bafbea"/><rect x="50.83333333333333" y="416.8333333333333" width="20.333333333333332" height="20.333333333333332" fill="#E6FAF5"/><polygon points="50.83,416.83 61,416.83 61,427" fill="#e2faf4"/><path d="M 50.83 437.17 A 10.17 10.17 0 0 1  61 427 L 50.83 437.17 A 10.17 10.17 0 0 0 61 427" fill="#c9fbee"/><path d="M 61 427 A 10.17 10.17 0 0 1  71.17 437.17 L 61 427 A 10.17 10.17 0 0 0 71.17 437.17" fill="#6bfdd7"/><rect x="91.5" y="416.8333333333333" width="20.333333333333332" height="20.333333333333332" fill="#E6FAF5"/><polygon points="101.67,416.83 101.67,427 91.5,427" fill="#89a6ec"/><path d="M 101.67 416.83 A 10.17 10.17 0 0 1  111.84 427 L 101.67 416.83 A 10.17 10.17 0 0 0 111.84 427" fill="#6bfdd7"/><polygon points="91.5,427 101.67,427 91.5,437.17" fill="#e0faf4"/><polygon points="101.67,427 111.84,427 111.84,437.17" fill="#5577e7"/><path d="M 132.17 416.83 A 20.33 20.33 0 0 1  152.5 437.15999999999997 L 132.17 416.83 A 20.33 20.33 0 0 0 152.5 437.15999999999997" fill="#96fce1"/><rect x="172.83333333333331" y="416.8333333333333" width="20.333333333333332" height="20.333333333333332" fill="#E6FAF5"/><path d="M 172.83 427 A 10.17 10.17 0 0 1  183 416.83 L 172.83 427 A 10.17 10.17 0 0 0 183 416.83" fill="#a2fce4"/><polygon points="183,416.83 193.17,416.83 193.17,427" fill="#67fed6"/><path d="M 172.83 437.17 A 10.17 10.17 0 0 1  183 427 L 172.83 437.17 A 10.17 10.17 0 0 0 183 427" fill="#6484e8"/><path d="M 183 427 A 10.17 10.17 0 0 1  193.17 437.17 L 183 427 A 10.17 10.17 0 0 0 193.17 437.17" fill="#43ffcd"/><rect x="213.49999999999997" y="416.8333333333333" width="20.333333333333332" height="20.333333333333332" fill="#E6FAF5"/><polygon points="233.83999999999997,416.83 233.83999999999997,427 223.67,427" fill="#c1d9f1"/><path d="M 213.5 437.17 A 10.17 10.17 0 0 1  223.67 427 L 213.5 437.17 A 10.17 10.17 0 0 0 223.67 427" fill="#dcfaf2"/><path d="M 223.67 427 A 10.17 10.17 0 0 1  233.83999999999997 437.17 L 223.67 427 A 10.17 10.17 0 0 0 233.83999999999997 437.17" fill="#dcfaf3"/><rect x="254.16666666666666" y="416.8333333333333" width="20.333333333333332" height="20.333333333333332" fill="#E6FAF5"/><polygon points="254.17,416.83 264.34,427 254.17,427" fill="#dffaf3"/><polygon points="274.5,416.83 274.5,427 264.33,427" fill="#54fed1"/><path d="M 254.17 437.17 A 10.17 10.17 0 0 1  264.34 427 L 254.17 437.17 A 10.17 10.17 0 0 0 264.34 427" fill="#7f9deb"/><polygon points="264.33,427 274.5,427 264.33,437.17" fill="#9bfce3"/><polygon points="294.83,416.83 315.15999999999997,416.83 294.83,437.15999999999997" fill="#2a4fe3"/><polygon points="335.5,416.83 355.83,416.83 335.5,437.15999999999997" fill="#91fce0"/><polygon points="376.17,416.83 396.5,416.83 376.17,437.15999999999997" fill="#d1e7f3"/><rect x="416.8333333333333" y="416.8333333333333" width="20.333333333333332" height="20.333333333333332" fill="#E6FAF5"/><polygon points="416.83,416.83 427,427 416.83,427" fill="#55fed1"/><rect x="457.5" y="416.8333333333333" width="20.333333333333332" height="20.333333333333332" fill="#E6FAF5"/><path d="M 457.5 427 A 10.17 10.17 0 0 1  467.67 416.83 L 457.5 427 A 10.17 10.17 0 0 0 467.67 416.83" fill="#b6cff0"/><path d="M 457.5 437.17 A 10.17 10.17 0 0 1  467.67 427 L 457.5 437.17 A 10.17 10.17 0 0 0 467.67 427" fill="#befbeb"/><polygon points="467.67,427 477.84000000000003,427 467.67,437.17" fill="#c7fbed"/><rect x="498.1666666666667" y="416.8333333333333" width="20.333333333333332" height="20.333333333333332" fill="#E6FAF5"/><path d="M 498.17 416.83 A 10.17 10.17 0 0 1  508.34000000000003 427 L 498.17 416.83 A 10.17 10.17 0 0 0 508.34000000000003 427" fill="#90fce0"/><polygon points="498.17,427 508.34000000000003,427 498.17,437.17" fill="#2046e2"/><path d="M 508.33 437.17 A 10.17 10.17 0 0 1  518.5 427 L 508.33 437.17 A 10.17 10.17 0 0 0 518.5 427" fill="#4cfecf"/><path d="M 579.5 437.15999999999997 A 20.33 20.33 0 0 1  599.83 416.83 L 579.5 437.15999999999997 A 20.33 20.33 0 0 0 599.83 416.83" fill="#708fea"/><rect x="620.1666666666666" y="416.8333333333333" width="20.333333333333332" height="20.333333333333332" fill="#E6FAF5"/><path d="M 630.33 416.83 A 10.17 10.17 0 0 1  640.5 427 L 630.33 416.83 A 10.17 10.17 0 0 0 640.5 427" fill="#4f71e6"/><path d="M 660.83 437.15999999999997 A 20.33 20.33 0 0 1  681.1600000000001 416.83 L 660.83 437.15999999999997 A 20.33 20.33 0 0 0 681.1600000000001 416.83" fill="#45fecd"/><polygon points="742.17,416.83 762.5,437.15999999999997 742.17,437.15999999999997" fill="#9efce3"/><rect x="823.4999999999999" y="416.8333333333333" width="20.333333333333332" height="20.333333333333332" fill="#E6FAF5"/><path d="M 823.5 427 A 10.17 10.17 0 0 1  833.67 416.83 L 823.5 427 A 10.17 10.17 0 0 0 833.67 416.83" fill="#e0faf3"/><polygon points="833.67,416.83 843.8399999999999,416.83 833.67,427" fill="#e1f6f5"/><path d="M 823.5 427 A 10.17 10.17 0 0 1  833.67 437.17 L 823.5 427 A 10.17 10.17 0 0 0 833.67 437.17" fill="#6585e9"/><polygon points="833.67,427 843.8399999999999,437.17 833.67,437.17" fill="#6888e9"/><polygon points="864.17,416.83 884.5,416.83 884.5,437.15999999999997" fill="#59fed2"/><rect x="904.8333333333333" y="416.8333333333333" width="20.333333333333332" height="20.333333333333332" fill="#E6FAF5"/><path d="M 915 416.83 A 10.17 10.17 0 0 1  925.17 427 L 915 416.83 A 10.17 10.17 0 0 0 925.17 427" fill="#b7fbe9"/><path d="M 915 437.17 A 10.17 10.17 0 0 1  925.17 427 L 915 437.17 A 10.17 10.17 0 0 0 925.17 427" fill="#78fdda"/><polygon points="1047.1599999999999,416.83 1047.1599999999999,437.15999999999997 1026.83,437.15999999999997" fill="#5a7be7"/><rect x="1067.5" y="416.8333333333333" width="20.333333333333332" height="20.333333333333332" fill="#E6FAF5"/><polygon points="1067.5,416.83 1077.67,416.83 1067.5,427" fill="#486be6"/><path d="M 1077.67 427 A 10.17 10.17 0 0 1  1087.8400000000001 416.83 L 1077.67 427 A 10.17 10.17 0 0 0 1087.8400000000001 416.83" fill="#d8faf1"/><polygon points="1067.5,427 1077.67,427 1067.5,437.17" fill="#ccfbef"/><path d="M 1077.67 437.17 A 10.17 10.17 0 0 1  1087.8400000000001 427 L 1077.67 437.17 A 10.17 10.17 0 0 0 1087.8400000000001 427" fill="#d7ecf4"/><polygon points="1108.17,416.83 1128.5,416.83 1108.17,437.15999999999997" fill="#3d60e5"/><rect x="1189.5" y="416.8333333333333" width="20.333333333333332" height="20.333333333333332" fill="#E6FAF5"/><path d="M 1189.5 416.83 A 10.17 10.17 0 0 1  1199.67 427 L 1189.5 416.83 A 10.17 10.17 0 0 0 1199.67 427" fill="#4dfecf"/><path d="M 1199.67 427 A 10.17 10.17 0 0 1  1209.8400000000001 416.83 L 1199.67 427 A 10.17 10.17 0 0 0 1209.8400000000001 416.83" fill="#99fce2"/><path d="M 1189.5 437.17 A 10.17 10.17 0 0 1  1199.67 427 L 1189.5 437.17 A 10.17 10.17 0 0 0 1199.67 427" fill="#4f71e6"/><path d="M 1199.67 437.17 A 10.17 10.17 0 0 1  1209.8400000000001 427 L 1199.67 437.17 A 10.17 10.17 0 0 0 1209.8400000000001 427" fill="#b1fbe8"/><rect x="1230.1666666666667" y="416.8333333333333" width="20.333333333333332" height="20.333333333333332" fill="#E6FAF5"/><path d="M 1230.17 416.83 A 10.17 10.17 0 0 1  1240.3400000000001 427 L 1230.17 416.83 A 10.17 10.17 0 0 0 1240.3400000000001 427" fill="#a6c0ef"/><polygon points="1250.5,416.83 1250.5,427 1240.33,427" fill="#5ffed4"/><polygon points="1240.33,427 1250.5,427 1240.33,437.17" fill="#cae1f2"/><rect x="1270.8333333333333" y="416.8333333333333" width="20.333333333333332" height="20.333333333333332" fill="#E6FAF5"/><path d="M 1270.83 416.83 A 10.17 10.17 0 0 1  1281 427 L 1270.83 416.83 A 10.17 10.17 0 0 0 1281 427" fill="#75fdd9"/><path d="M 1281 416.83 A 10.17 10.17 0 0 1  1291.17 427 L 1281 416.83 A 10.17 10.17 0 0 0 1291.17 427" fill="#35ffca"/><polygon points="1281,427 1281,437.17 1270.83,437.17" fill="#95b0ed"/><path d="M 1281 437.17 A 10.17 10.17 0 0 1  1291.17 427 L 1281 437.17 A 10.17 10.17 0 0 0 1291.17 427" fill="#bcd4f1"/><path d="M 1311.5 437.15999999999997 A 20.33 20.33 0 0 1  1331.83 416.83 L 1311.5 437.15999999999997 A 20.33 20.33 0 0 0 1331.83 416.83" fill="#defaf3"/><path d="M 1352.17 416.83 A 20.33 20.33 0 0 1  1372.5 437.15999999999997 L 1352.17 416.83 A 20.33 20.33 0 0 0 1372.5 437.15999999999997" fill="#a8fce6"/><rect x="1392.8333333333333" y="416.8333333333333" width="20.333333333333332" height="20.333333333333332" fill="#E6FAF5"/><polygon points="1392.83,416.83 1403,427 1392.83,427" fill="#92fce0"/><polygon points="1403,416.83 1413.17,416.83 1403,427" fill="#cce2f2"/><path d="M 1392.83 437.17 A 10.17 10.17 0 0 1  1403 427 L 1392.83 437.17 A 10.17 10.17 0 0 0 1403 427" fill="#a9c3ef"/><path d="M 1403 427 A 10.17 10.17 0 0 1  1413.17 437.17 L 1403 427 A 10.17 10.17 0 0 0 1413.17 437.17" fill="#56fed2"/><polygon points="30.5,457.5 30.5,477.83 10.17,477.83" fill="#b9fbea"/><polygon points="71.16,457.5 71.16,477.83 50.83,477.83" fill="#b2cbf0"/><rect x="132.16666666666666" y="457.5" width="20.333333333333332" height="20.333333333333332" fill="#E6FAF5"/><polygon points="142.33999999999997,457.5 142.33999999999997,467.67 132.17,467.67" fill="#49fece"/><polygon points="142.33,457.5 152.5,457.5 152.5,467.67" fill="#4d6fe6"/><polygon points="142.33999999999997,467.67 142.33999999999997,477.84000000000003 132.17,477.84000000000003" fill="#7dfddb"/><rect x="172.83333333333331" y="457.5" width="20.333333333333332" height="20.333333333333332" fill="#E6FAF5"/><polygon points="172.83,457.5 183,457.5 183,467.67" fill="#98fce2"/><polygon points="183,457.5 193.17,457.5 193.17,467.67" fill="#70fdd8"/><path d="M 172.83 467.67 A 10.17 10.17 0 0 1  183 477.84000000000003 L 172.83 467.67 A 10.17 10.17 0 0 0 183 477.84000000000003" fill="#38ffca"/><path d="M 183 477.84000000000003 A 10.17 10.17 0 0 1  193.17 467.67 L 183 477.84000000000003 A 10.17 10.17 0 0 0 193.17 467.67" fill="#73fdd9"/><rect x="213.49999999999997" y="457.5" width="20.333333333333332" height="20.333333333333332" fill="#E6FAF5"/><polygon points="213.5,457.5 223.67,467.67 213.5,467.67" fill="#c0fbec"/><polygon points="233.83999999999997,457.5 233.83999999999997,467.67 223.67,467.67" fill="#5e7fe8"/><path d="M 213.5 477.84000000000003 A 10.17 10.17 0 0 1  223.67 467.67 L 213.5 477.84000000000003 A 10.17 10.17 0 0 0 223.67 467.67" fill="#96fce1"/><polygon points="233.83999999999997,467.67 233.83999999999997,477.84000000000003 223.67,477.84000000000003" fill="#1e44e2"/><rect x="254.16666666666666" y="457.5" width="20.333333333333332" height="20.333333333333332" fill="#E6FAF5"/><polygon points="264.34,457.5 264.34,467.67 254.17,467.67" fill="#7dfddb"/><path d="M 264.33 457.5 A 10.17 10.17 0 0 1  274.5 467.67 L 264.33 457.5 A 10.17 10.17 0 0 0 274.5 467.67" fill="#bdd4f1"/><polygon points="254.17,467.67 264.34,477.84000000000003 254.17,477.84000000000003" fill="#6e8de9"/><polygon points="264.33,467.67 274.5,467.67 274.5,477.84000000000003" fill="#3affcb"/><polygon points="294.83,457.5 315.15999999999997,477.83 294.83,477.83" fill="#7bfddb"/><polygon points="335.5,457.5 355.83,457.5 335.5,477.83" fill="#5273e7"/><rect x="376.1666666666667" y="457.5" width="20.333333333333332" height="20.333333333333332" fill="#E6FAF5"/><polygon points="376.17,457.5 386.34000000000003,457.5 376.17,467.67" fill="#c6ddf2"/><path d="M 386.33 467.67 A 10.17 10.17 0 0 1  396.5 457.5 L 386.33 467.67 A 10.17 10.17 0 0 0 396.5 457.5" fill="#5577e7"/><polygon points="376.17,467.67 386.34000000000003,477.84000000000003 376.17,477.84000000000003" fill="#8da9ec"/><rect x="416.8333333333333" y="457.5" width="20.333333333333332" height="20.333333333333332" fill="#E6FAF5"/><path d="M 427 467.67 A 10.17 10.17 0 0 1  437.17 457.5 L 427 467.67 A 10.17 10.17 0 0 0 437.17 457.5" fill="#e3faf4"/><polygon points="416.83,467.67 427,467.67 416.83,477.84000000000003" fill="#d6faf1"/><polygon points="427,467.67 437.17,467.67 427,477.84000000000003" fill="#52fed1"/><rect x="457.5" y="457.5" width="20.333333333333332" height="20.333333333333332" fill="#E6FAF5"/><polygon points="457.5,457.5 467.67,457.5 467.67,467.67" fill="#9bb6ee"/><polygon points="467.67,457.5 477.84000000000003,467.67 467.67,467.67" fill="#afc8f0"/><polygon points="467.67,467.67 477.84000000000003,467.67 477.84000000000003,477.84000000000003" fill="#c4dbf2"/><rect x="498.1666666666667" y="457.5" width="20.333333333333332" height="20.333333333333332" fill="#E6FAF5"/><path d="M 498.17 467.67 A 10.17 10.17 0 0 1  508.34000000000003 457.5 L 498.17 467.67 A 10.17 10.17 0 0 0 508.34000000000003 457.5" fill="#8bfddf"/><path d="M 508.33 467.67 A 10.17 10.17 0 0 1  518.5 457.5 L 508.33 467.67 A 10.17 10.17 0 0 0 518.5 457.5" fill="#5c7de8"/><polygon points="498.17,467.67 508.34000000000003,467.67 498.17,477.84000000000003" fill="#b7fbe9"/><rect x="538.8333333333333" y="457.5" width="20.333333333333332" height="20.333333333333332" fill="#E6FAF5"/><polygon points="538.83,457.5 549,457.5 549,467.67" fill="#4467e5"/><polygon points="549,457.5 559.17,457.5 559.17,467.67" fill="#6585e8"/><path d="M 538.83 467.67 A 10.17 10.17 0 0 1  549 477.84000000000003 L 538.83 467.67 A 10.17 10.17 0 0 0 549 477.84000000000003" fill="#ddf1f4"/><polygon points="549,467.67 559.17,467.67 549,477.84000000000003" fill="#b4cdf0"/><rect x="579.4999999999999" y="457.5" width="20.333333333333332" height="20.333333333333332" fill="#E6FAF5"/><path d="M 579.5 457.5 A 10.17 10.17 0 0 1  589.67 467.67 L 579.5 457.5 A 10.17 10.17 0 0 0 589.67 467.67" fill="#bad2f1"/><polygon points="589.67,457.5 599.8399999999999,457.5 599.8399999999999,467.67" fill="#3effcc"/><path d="M 579.5 467.67 A 10.17 10.17 0 0 1  589.67 477.84000000000003 L 579.5 467.67 A 10.17 10.17 0 0 0 589.67 477.84000000000003" fill="#2c51e3"/><polygon points="589.67,467.67 599.8399999999999,467.67 589.67,477.84000000000003" fill="#6c8be9"/><rect x="620.1666666666666" y="457.5" width="20.333333333333332" height="20.333333333333332" fill="#E6FAF5"/><path d="M 620.17 457.5 A 10.17 10.17 0 0 1  630.3399999999999 467.67 L 620.17 457.5 A 10.17 10.17 0 0 0 630.3399999999999 467.67" fill="#6989e9"/><path d="M 630.33 467.67 A 10.17 10.17 0 0 1  640.5 457.5 L 630.33 467.67 A 10.17 10.17 0 0 0 640.5 457.5" fill="#e2f6f5"/><path d="M 620.17 477.84000000000003 A 10.17 10.17 0 0 1  630.3399999999999 467.67 L 620.17 477.84000000000003 A 10.17 10.17 0 0 0 630.3399999999999 467.67" fill="#e6faf5"/><path d="M 660.83 457.5 A 20.33 20.33 0 0 1  681.1600000000001 477.83 L 660.83 457.5 A 20.33 20.33 0 0 0 681.1600000000001 477.83" fill="#43ffcd"/><rect x="701.4999999999999" y="457.5" width="20.333333333333332" height="20.333333333333332" fill="#E6FAF5"/><polygon points="701.5,457.5 711.67,467.67 701.5,467.67" fill="#4d6fe6"/><path d="M 711.67 457.5 A 10.17 10.17 0 0 1  721.8399999999999 467.67 L 711.67 457.5 A 10.17 10.17 0 0 0 721.8399999999999 467.67" fill="#88a4ec"/><path d="M 701.5 477.84000000000003 A 10.17 10.17 0 0 1  711.67 467.67 L 701.5 477.84000000000003 A 10.17 10.17 0 0 0 711.67 467.67" fill="#86fddd"/><path d="M 711.67 477.84000000000003 A 10.17 10.17 0 0 1  721.8399999999999 467.67 L 711.67 477.84000000000003 A 10.17 10.17 0 0 0 721.8399999999999 467.67" fill="#bad2f1"/><rect x="742.1666666666666" y="457.5" width="20.333333333333332" height="20.333333333333332" fill="#E6FAF5"/><path d="M 742.17 457.5 A 10.17 10.17 0 0 1  752.3399999999999 467.67 L 742.17 457.5 A 10.17 10.17 0 0 0 752.3399999999999 467.67" fill="#5274e7"/><path d="M 752.33 457.5 A 10.17 10.17 0 0 1  762.5 467.67 L 752.33 457.5 A 10.17 10.17 0 0 0 762.5 467.67" fill="#2e53e3"/><path d="M 742.17 467.67 A 10.17 10.17 0 0 1  752.3399999999999 477.84000000000003 L 742.17 467.67 A 10.17 10.17 0 0 0 752.3399999999999 477.84000000000003" fill="#2f54e3"/><path d="M 752.33 477.84000000000003 A 10.17 10.17 0 0 1  762.5 467.67 L 752.33 477.84000000000003 A 10.17 10.17 0 0 0 762.5 467.67" fill="#a1bbee"/><rect x="782.8333333333333" y="457.5" width="20.333333333333332" height="20.333333333333332" fill="#E6FAF5"/><path d="M 793 467.67 A 10.17 10.17 0 0 1  803.17 457.5 L 793 467.67 A 10.17 10.17 0 0 0 803.17 457.5" fill="#2b50e3"/><polygon points="793,467.67 803.17,467.67 793,477.84000000000003" fill="#bafbea"/><rect x="823.4999999999999" y="457.5" width="20.333333333333332" height="20.333333333333332" fill="#E6FAF5"/><polygon points="823.5,457.5 833.67,467.67 823.5,467.67" fill="#aac3ef"/><path d="M 833.67 457.5 A 10.17 10.17 0 0 1  843.8399999999999 467.67 L 833.67 457.5 A 10.17 10.17 0 0 0 843.8399999999999 467.67" fill="#4dfecf"/><path d="M 823.5 467.67 A 10.17 10.17 0 0 1  833.67 477.84000000000003 L 823.5 467.67 A 10.17 10.17 0 0 0 833.67 477.84000000000003" fill="#a5bfef"/><path d="M 833.67 477.84000000000003 A 10.17 10.17 0 0 1  843.8399999999999 467.67 L 833.67 477.84000000000003 A 10.17 10.17 0 0 0 843.8399999999999 467.67" fill="#38ffca"/><rect x="864.1666666666666" y="457.5" width="20.333333333333332" height="20.333333333333332" fill="#E6FAF5"/><polygon points="864.17,457.5 874.3399999999999,457.5 874.3399999999999,467.67" fill="#34ffc9"/><polygon points="874.33,457.5 884.5,467.67 874.33,467.67" fill="#7b99eb"/><path d="M 864.17 467.67 A 10.17 10.17 0 0 1  874.3399999999999 477.84000000000003 L 864.17 467.67 A 10.17 10.17 0 0 0 874.3399999999999 477.84000000000003" fill="#92fce0"/><polygon points="874.33,467.67 884.5,467.67 874.33,477.84000000000003" fill="#4a6ce6"/><polygon points="904.83,457.5 925.1600000000001,457.5 925.1600000000001,477.83" fill="#2f54e3"/><rect x="945.4999999999999" y="457.5" width="20.333333333333332" height="20.333333333333332" fill="#E6FAF5"/><path d="M 945.5 467.67 A 10.17 10.17 0 0 1  955.67 457.5 L 945.5 467.67 A 10.17 10.17 0 0 0 955.67 457.5" fill="#1f45e2"/><path d="M 955.67 467.67 A 10.17 10.17 0 0 1  965.8399999999999 457.5 L 955.67 467.67 A 10.17 10.17 0 0 0 965.8399999999999 457.5" fill="#c7fbed"/><path d="M 945.5 477.84000000000003 A 10.17 10.17 0 0 1  955.67 467.67 L 945.5 477.84000000000003 A 10.17 10.17 0 0 0 955.67 467.67" fill="#3bffcb"/><rect x="986.1666666666666" y="457.5" width="20.333333333333332" height="20.333333333333332" fill="#E6FAF5"/><path d="M 986.17 457.5 A 10.17 10.17 0 0 1  996.3399999999999 467.67 L 986.17 457.5 A 10.17 10.17 0 0 0 996.3399999999999 467.67" fill="#b4fbe9"/><polygon points="996.33,457.5 1006.5,457.5 996.33,467.67" fill="#83fddd"/><polygon points="986.17,467.67 996.3399999999999,477.84000000000003 986.17,477.84000000000003" fill="#4f71e6"/><path d="M 996.33 467.67 A 10.17 10.17 0 0 1  1006.5 477.84000000000003 L 996.33 467.67 A 10.17 10.17 0 0 0 1006.5 477.84000000000003" fill="#b4cdf0"/><rect x="1026.8333333333333" y="457.5" width="20.333333333333332" height="20.333333333333332" fill="#E6FAF5"/><polygon points="1026.83,457.5 1037,457.5 1026.83,467.67" fill="#a8fce6"/><polygon points="1037,457.5 1047.17,457.5 1037,467.67" fill="#8afdde"/><polygon points="1026.83,467.67 1037,477.84000000000003 1026.83,477.84000000000003" fill="#bcfbeb"/><polygon points="1067.5,457.5 1087.83,457.5 1067.5,477.83" fill="#cde3f3"/><rect x="1108.1666666666667" y="457.5" width="20.333333333333332" height="20.333333333333332" fill="#E6FAF5"/><polygon points="1108.17,457.5 1118.3400000000001,467.67 1108.17,467.67" fill="#91fce0"/><polygon points="1108.17,467.67 1118.3400000000001,477.84000000000003 1108.17,477.84000000000003" fill="#8afdde"/><polygon points="1118.33,467.67 1128.5,467.67 1118.33,477.84000000000003" fill="#befbeb"/><polygon points="1148.83,457.5 1169.1599999999999,457.5 1169.1599999999999,477.83" fill="#1d44e1"/><path d="M 1189.5 457.5 A 20.33 20.33 0 0 1  1209.83 477.83 L 1189.5 457.5 A 20.33 20.33 0 0 0 1209.83 477.83" fill="#e3faf4"/><rect x="1230.1666666666667" y="457.5" width="20.333333333333332" height="20.333333333333332" fill="#E6FAF5"/><polygon points="1230.17,457.5 1240.3400000000001,467.67 1230.17,467.67" fill="#3cffcb"/><path d="M 1240.33 467.67 A 10.17 10.17 0 0 1  1250.5 457.5 L 1240.33 467.67 A 10.17 10.17 0 0 0 1250.5 457.5" fill="#244ae2"/><path d="M 1230.17 477.84000000000003 A 10.17 10.17 0 0 1  1240.3400000000001 467.67 L 1230.17 477.84000000000003 A 10.17 10.17 0 0 0 1240.3400000000001 467.67" fill="#3b5fe4"/><path d="M 1240.33 467.67 A 10.17 10.17 0 0 1  1250.5 477.84000000000003 L 1240.33 467.67 A 10.17 10.17 0 0 0 1250.5 477.84000000000003" fill="#c2fbec"/><path d="M 1270.83 477.83 A 20.33 20.33 0 0 1  1291.1599999999999 457.5 L 1270.83 477.83 A 20.33 20.33 0 0 0 1291.1599999999999 457.5" fill="#a3bdee"/><rect x="1311.5" y="457.5" width="20.333333333333332" height="20.333333333333332" fill="#E6FAF5"/><polygon points="1311.5,457.5 1321.67,457.5 1321.67,467.67" fill="#5677e7"/><path d="M 1321.67 457.5 A 10.17 10.17 0 0 1  1331.8400000000001 467.67 L 1321.67 457.5 A 10.17 10.17 0 0 0 1331.8400000000001 467.67" fill="#93fce1"/><path d="M 1321.67 477.84000000000003 A 10.17 10.17 0 0 1  1331.8400000000001 467.67 L 1321.67 477.84000000000003 A 10.17 10.17 0 0 0 1331.8400000000001 467.67" fill="#d5faf1"/><rect x="1352.1666666666667" y="457.5" width="20.333333333333332" height="20.333333333333332" fill="#E6FAF5"/><polygon points="1352.17,457.5 1362.3400000000001,457.5 1362.3400000000001,467.67" fill="#1d43e1"/><polygon points="1362.33,457.5 1372.5,457.5 1372.5,467.67" fill="#809deb"/><polygon points="1362.3400000000001,467.67 1362.3400000000001,477.84000000000003 1352.17,477.84000000000003" fill="#ddfaf3"/><polygon points="1362.33,467.67 1372.5,467.67 1362.33,477.84000000000003" fill="#7bfddb"/><rect x="10.166666666666666" y="498.1666666666667" width="20.333333333333332" height="20.333333333333332" fill="#E6FAF5"/><polygon points="10.17,498.17 20.34,498.17 20.34,508.34000000000003" fill="#99fce2"/><path d="M 20.33 508.34000000000003 A 10.17 10.17 0 0 1  30.5 498.17 L 20.33 508.34000000000003 A 10.17 10.17 0 0 0 30.5 498.17" fill="#9eb8ee"/><polygon points="20.34,508.33 20.34,518.5 10.17,518.5" fill="#3c5fe4"/><path d="M 20.33 508.33 A 10.17 10.17 0 0 1  30.5 518.5 L 20.33 508.33 A 10.17 10.17 0 0 0 30.5 518.5" fill="#3affcb"/><polygon points="71.16,498.17 71.16,518.5 50.83,518.5" fill="#abc4ef"/><polygon points="91.5,498.17 111.83,498.17 91.5,518.5" fill="#43ffcd"/><path d="M 172.83 518.5 A 20.33 20.33 0 0 1  193.16000000000003 498.17 L 172.83 518.5 A 20.33 20.33 0 0 0 193.16000000000003 498.17" fill="#809eeb"/><rect x="213.49999999999997" y="498.1666666666667" width="20.333333333333332" height="20.333333333333332" fill="#E6FAF5"/><path d="M 213.5 498.17 A 10.17 10.17 0 0 1  223.67 508.34000000000003 L 213.5 498.17 A 10.17 10.17 0 0 0 223.67 508.34000000000003" fill="#e3f7f5"/><path d="M 223.67 508.34000000000003 A 10.17 10.17 0 0 1  233.83999999999997 498.17 L 223.67 508.34000000000003 A 10.17 10.17 0 0 0 233.83999999999997 498.17" fill="#1b41e1"/><path d="M 213.5 518.5 A 10.17 10.17 0 0 1  223.67 508.33 L 213.5 518.5 A 10.17 10.17 0 0 0 223.67 508.33" fill="#294ee3"/><polygon points="223.67,508.33 233.83999999999997,508.33 223.67,518.5" fill="#7cfddb"/><path d="M 254.17 518.5 A 20.33 20.33 0 0 1  274.5 498.17 L 254.17 518.5 A 20.33 20.33 0 0 0 274.5 498.17" fill="#def3f4"/><rect x="294.8333333333333" y="498.1666666666667" width="20.333333333333332" height="20.333333333333332" fill="#E6FAF5"/><polygon points="294.83,498.17 305,498.17 305,508.34000000000003" fill="#4467e5"/><polygon points="305,498.17 315.17,498.17 305,508.34000000000003" fill="#a1fce4"/><polygon points="294.83,508.33 305,508.33 305,518.5" fill="#2e53e3"/><path d="M 305 518.5 A 10.17 10.17 0 0 1  315.17 508.33 L 305 518.5 A 10.17 10.17 0 0 0 315.17 508.33" fill="#3dffcb"/><polygon points="355.83,498.17 355.83,518.5 335.5,518.5" fill="#40ffcc"/><rect x="376.1666666666667" y="498.1666666666667" width="20.333333333333332" height="20.333333333333332" fill="#E6FAF5"/><polygon points="386.34000000000003,498.17 386.34000000000003,508.34000000000003 376.17,508.34000000000003" fill="#dcf1f4"/><polygon points="386.33,498.17 396.5,498.17 396.5,508.34000000000003" fill="#88a5ec"/><polygon points="376.17,508.33 386.34000000000003,508.33 376.17,518.5" fill="#85a2ec"/><polygon points="386.33,508.33 396.5,518.5 386.33,518.5" fill="#82fddc"/><path d="M 416.83 518.5 A 20.33 20.33 0 0 1  437.15999999999997 498.17 L 416.83 518.5 A 20.33 20.33 0 0 0 437.15999999999997 498.17" fill="#a3beef"/><rect x="457.5" y="498.1666666666667" width="20.333333333333332" height="20.333333333333332" fill="#E6FAF5"/><path d="M 457.5 498.17 A 10.17 10.17 0 0 1  467.67 508.34000000000003 L 457.5 498.17 A 10.17 10.17 0 0 0 467.67 508.34000000000003" fill="#98b3ed"/><polygon points="467.67,498.17 477.84000000000003,498.17 477.84000000000003,508.34000000000003" fill="#e2faf4"/><path d="M 457.5 518.5 A 10.17 10.17 0 0 1  467.67 508.33 L 457.5 518.5 A 10.17 10.17 0 0 0 467.67 508.33" fill="#affce7"/><path d="M 467.67 518.5 A 10.17 10.17 0 0 1  477.84000000000003 508.33 L 467.67 518.5 A 10.17 10.17 0 0 0 477.84000000000003 508.33" fill="#defaf3"/><rect x="498.1666666666667" y="498.1666666666667" width="20.333333333333332" height="20.333333333333332" fill="#E6FAF5"/><path d="M 498.17 498.17 A 10.17 10.17 0 0 1  508.34000000000003 508.34000000000003 L 498.17 498.17 A 10.17 10.17 0 0 0 508.34000000000003 508.34000000000003" fill="#819eeb"/><polygon points="508.33,498.17 518.5,498.17 518.5,508.34000000000003" fill="#94afed"/><path d="M 498.17 508.33 A 10.17 10.17 0 0 1  508.34000000000003 518.5 L 498.17 508.33 A 10.17 10.17 0 0 0 508.34000000000003 518.5" fill="#9dfce3"/><path d="M 508.33 518.5 A 10.17 10.17 0 0 1  518.5 508.33 L 508.33 518.5 A 10.17 10.17 0 0 0 518.5 508.33" fill="#6b8ae9"/><rect x="538.8333333333333" y="498.1666666666667" width="20.333333333333332" height="20.333333333333332" fill="#E6FAF5"/><polygon points="538.83,498.17 549,508.34000000000003 538.83,508.34000000000003" fill="#abc4ef"/><polygon points="559.17,498.17 559.17,508.34000000000003 549,508.34000000000003" fill="#d4fbf1"/><polygon points="538.83,508.33 549,508.33 549,518.5" fill="#254ae2"/><path d="M 549 508.33 A 10.17 10.17 0 0 1  559.17 518.5 L 549 508.33 A 10.17 10.17 0 0 0 559.17 518.5" fill="#8bfddf"/><polygon points="579.5,498.17 599.83,498.17 599.83,518.5" fill="#d8edf4"/><polygon points="660.83,498.17 681.1600000000001,498.17 681.1600000000001,518.5" fill="#e4f9f5"/><rect x="701.4999999999999" y="498.1666666666667" width="20.333333333333332" height="20.333333333333332" fill="#E6FAF5"/><path d="M 701.5 508.34000000000003 A 10.17 10.17 0 0 1  711.67 498.17 L 701.5 508.34000000000003 A 10.17 10.17 0 0 0 711.67 498.17" fill="#74fdd9"/><polygon points="721.8399999999999,498.17 721.8399999999999,508.34000000000003 711.67,508.34000000000003" fill="#b7fbe9"/><path d="M 701.5 518.5 A 10.17 10.17 0 0 1  711.67 508.33 L 701.5 518.5 A 10.17 10.17 0 0 0 711.67 508.33" fill="#55fed1"/><path d="M 711.67 508.33 A 10.17 10.17 0 0 1  721.8399999999999 518.5 L 711.67 508.33 A 10.17 10.17 0 0 0 721.8399999999999 518.5" fill="#1940e1"/><path d="M 782.83 498.17 A 20.33 20.33 0 0 1  803.1600000000001 518.5 L 782.83 498.17 A 20.33 20.33 0 0 0 803.1600000000001 518.5" fill="#6989e9"/><rect x="904.8333333333333" y="498.1666666666667" width="20.333333333333332" height="20.333333333333332" fill="#E6FAF5"/><polygon points="904.83,498.17 915,508.34000000000003 904.83,508.34000000000003" fill="#6d8ce9"/><polygon points="925.17,498.17 925.17,508.34000000000003 915,508.34000000000003" fill="#7695ea"/><path d="M 904.83 508.33 A 10.17 10.17 0 0 1  915 518.5 L 904.83 508.33 A 10.17 10.17 0 0 0 915 518.5" fill="#2d52e3"/><polygon points="915,508.33 925.17,518.5 915,518.5" fill="#e1faf4"/><rect x="945.4999999999999" y="498.1666666666667" width="20.333333333333332" height="20.333333333333332" fill="#E6FAF5"/><polygon points="945.5,498.17 955.67,498.17 945.5,508.34000000000003" fill="#5374e7"/><path d="M 955.67 508.34000000000003 A 10.17 10.17 0 0 1  965.8399999999999 498.17 L 955.67 508.34000000000003 A 10.17 10.17 0 0 0 965.8399999999999 498.17" fill="#89fdde"/><path d="M 945.5 508.33 A 10.17 10.17 0 0 1  955.67 518.5 L 945.5 508.33 A 10.17 10.17 0 0 0 955.67 518.5" fill="#e2f7f5"/><path d="M 955.67 508.33 A 10.17 10.17 0 0 1  965.8399999999999 518.5 L 955.67 508.33 A 10.17 10.17 0 0 0 965.8399999999999 518.5" fill="#abc4ef"/><polygon points="986.17,498.17 1006.5,518.5 986.17,518.5" fill="#d0fbf0"/><rect x="1026.8333333333333" y="498.1666666666667" width="20.333333333333332" height="20.333333333333332" fill="#E6FAF5"/><path d="M 1026.83 508.34000000000003 A 10.17 10.17 0 0 1  1037 498.17 L 1026.83 508.34000000000003 A 10.17 10.17 0 0 0 1037 498.17" fill="#6bfdd7"/><path d="M 1037 498.17 A 10.17 10.17 0 0 1  1047.17 508.34000000000003 L 1037 498.17 A 10.17 10.17 0 0 0 1047.17 508.34000000000003" fill="#4467e5"/><path d="M 1026.83 518.5 A 10.17 10.17 0 0 1  1037 508.33 L 1026.83 518.5 A 10.17 10.17 0 0 0 1037 508.33" fill="#5cfed3"/><polygon points="1047.17,508.33 1047.17,518.5 1037,518.5" fill="#76fdda"/><polygon points="1067.5,498.17 1087.83,518.5 1067.5,518.5" fill="#d2e8f3"/><polygon points="1128.5,498.17 1128.5,518.5 1108.17,518.5" fill="#8aa6ec"/><rect x="1148.8333333333333" y="498.1666666666667" width="20.333333333333332" height="20.333333333333332" fill="#E6FAF5"/><path d="M 1148.83 498.17 A 10.17 10.17 0 0 1  1159 508.34000000000003 L 1148.83 498.17 A 10.17 10.17 0 0 0 1159 508.34000000000003" fill="#294fe3"/><polygon points="1159,498.17 1169.17,498.17 1169.17,508.34000000000003" fill="#a3fce5"/><path d="M 1148.83 518.5 A 10.17 10.17 0 0 1  1159 508.33 L 1148.83 518.5 A 10.17 10.17 0 0 0 1159 508.33" fill="#cae0f2"/><polygon points="1169.17,508.33 1169.17,518.5 1159,518.5" fill="#a3bdee"/><path d="M 1189.5 498.17 A 20.33 20.33 0 0 1  1209.83 518.5 L 1189.5 498.17 A 20.33 20.33 0 0 0 1209.83 518.5" fill="#6182e8"/><polygon points="1230.17,498.17 1250.5,498.17 1230.17,518.5" fill="#a1fce4"/><polygon points="1270.83,498.17 1291.1599999999999,498.17 1291.1599999999999,518.5" fill="#a3fce5"/><path d="M 1311.5 518.5 A 20.33 20.33 0 0 1  1331.83 498.17 L 1311.5 518.5 A 20.33 20.33 0 0 0 1331.83 498.17" fill="#3a5ee4"/><polygon points="1372.5,498.17 1372.5,518.5 1352.17,518.5" fill="#aefce7"/><rect x="1392.8333333333333" y="498.1666666666667" width="20.333333333333332" height="20.333333333333332" fill="#E6FAF5"/><polygon points="1392.83,498.17 1403,498.17 1392.83,508.34000000000003" fill="#e2f7f5"/><path d="M 1403 508.34000000000003 A 10.17 10.17 0 0 1  1413.17 498.17 L 1403 508.34000000000003 A 10.17 10.17 0 0 0 1413.17 498.17" fill="#7efddb"/><path d="M 1392.83 518.5 A 10.17 10.17 0 0 1  1403 508.33 L 1392.83 518.5 A 10.17 10.17 0 0 0 1403 508.33" fill="#d4eaf3"/><polygon points="1413.17,508.33 1413.17,518.5 1403,518.5" fill="#bdfbeb"/><path d="M 10.17 538.83 A 20.33 20.33 0 0 1  30.5 559.1600000000001 L 10.17 538.83 A 20.33 20.33 0 0 0 30.5 559.1600000000001" fill="#def3f4"/><path d="M 50.83 559.1600000000001 A 20.33 20.33 0 0 1  71.16 538.83 L 50.83 559.1600000000001 A 20.33 20.33 0 0 0 71.16 538.83" fill="#2e53e3"/><rect x="91.5" y="538.8333333333333" width="20.333333333333332" height="20.333333333333332" fill="#E6FAF5"/><path d="M 91.5 549 A 10.17 10.17 0 0 1  101.67 538.83 L 91.5 549 A 10.17 10.17 0 0 0 101.67 538.83" fill="#3affcb"/><path d="M 101.67 549 A 10.17 10.17 0 0 1  111.84 538.83 L 101.67 549 A 10.17 10.17 0 0 0 111.84 538.83" fill="#476ae6"/><polygon points="91.5,549 101.67,559.17 91.5,559.17" fill="#def3f4"/><polygon points="101.67,549 111.84,549 111.84,559.17" fill="#dbf0f4"/><rect x="132.16666666666666" y="538.8333333333333" width="20.333333333333332" height="20.333333333333332" fill="#E6FAF5"/><path d="M 132.17 549 A 10.17 10.17 0 0 1  142.33999999999997 538.83 L 132.17 549 A 10.17 10.17 0 0 0 142.33999999999997 538.83" fill="#e1f5f4"/><polygon points="152.5,538.83 152.5,549 142.33,549" fill="#c8fbee"/><polygon points="142.33999999999997,549 142.33999999999997,559.17 132.17,559.17" fill="#3cffcb"/><polygon points="152.5,549 152.5,559.17 142.33,559.17" fill="#a7c0ef"/><polygon points="172.83,538.83 193.16000000000003,559.1600000000001 172.83,559.1600000000001" fill="#48fece"/><polygon points="213.5,538.83 233.82999999999998,538.83 213.5,559.1600000000001" fill="#68fed6"/><rect x="254.16666666666666" y="538.8333333333333" width="20.333333333333332" height="20.333333333333332" fill="#E6FAF5"/><path d="M 254.17 538.83 A 10.17 10.17 0 0 1  264.34 549 L 254.17 538.83 A 10.17 10.17 0 0 0 264.34 549" fill="#2d52e3"/><polygon points="264.33,538.83 274.5,549 264.33,549" fill="#95fce1"/><polygon points="254.17,549 264.34,559.17 254.17,559.17" fill="#9afce2"/><polygon points="274.5,549 274.5,559.17 264.33,559.17" fill="#56fed2"/><path d="M 294.83 538.83 A 20.33 20.33 0 0 1  315.15999999999997 559.1600000000001 L 294.83 538.83 A 20.33 20.33 0 0 0 315.15999999999997 559.1600000000001" fill="#5dfed3"/><rect x="335.5" y="538.8333333333333" width="20.333333333333332" height="20.333333333333332" fill="#E6FAF5"/><polygon points="335.5,538.83 345.67,538.83 345.67,549" fill="#bbd3f1"/><path d="M 345.67 538.83 A 10.17 10.17 0 0 1  355.84000000000003 549 L 345.67 538.83 A 10.17 10.17 0 0 0 355.84000000000003 549" fill="#6afdd6"/><path d="M 335.5 559.17 A 10.17 10.17 0 0 1  345.67 549 L 335.5 559.17 A 10.17 10.17 0 0 0 345.67 549" fill="#d5ebf3"/><path d="M 345.67 559.17 A 10.17 10.17 0 0 1  355.84000000000003 549 L 345.67 559.17 A 10.17 10.17 0 0 0 355.84000000000003 549" fill="#bcd3f1"/><rect x="376.1666666666667" y="538.8333333333333" width="20.333333333333332" height="20.333333333333332" fill="#E6FAF5"/><polygon points="386.34000000000003,538.83 386.34000000000003,549 376.17,549" fill="#86fddd"/><path d="M 386.33 549 A 10.17 10.17 0 0 1  396.5 538.83 L 386.33 549 A 10.17 10.17 0 0 0 396.5 538.83" fill="#9bb6ee"/><polygon points="376.17,549 386.34000000000003,549 386.34000000000003,559.17" fill="#2c51e3"/><polygon points="386.33,549 396.5,549 396.5,559.17" fill="#264ce2"/><path d="M 416.83 538.83 A 20.33 20.33 0 0 1  437.15999999999997 559.1600000000001 L 416.83 538.83 A 20.33 20.33 0 0 0 437.15999999999997 559.1600000000001" fill="#7795ea"/><polygon points="457.5,538.83 477.83,538.83 457.5,559.1600000000001" fill="#6dfdd7"/><path d="M 498.17 538.83 A 20.33 20.33 0 0 1  518.5 559.1600000000001 L 498.17 538.83 A 20.33 20.33 0 0 0 518.5 559.1600000000001" fill="#3156e3"/><rect x="538.8333333333333" y="538.8333333333333" width="20.333333333333332" height="20.333333333333332" fill="#E6FAF5"/><path d="M 538.83 538.83 A 10.17 10.17 0 0 1  549 549 L 538.83 538.83 A 10.17 10.17 0 0 0 549 549" fill="#6283e8"/><polygon points="549,538.83 559.17,538.83 559.17,549" fill="#abfce6"/><polygon points="538.83,549 549,559.17 538.83,559.17" fill="#d1fbf0"/><path d="M 549 559.17 A 10.17 10.17 0 0 1  559.17 549 L 549 559.17 A 10.17 10.17 0 0 0 559.17 549" fill="#aec7f0"/><polygon points="579.5,538.83 599.83,538.83 599.83,559.1600000000001" fill="#69fed6"/><polygon points="620.17,538.83 640.5,538.83 620.17,559.1600000000001" fill="#1f45e2"/><polygon points="681.1600000000001,538.83 681.1600000000001,559.1600000000001 660.83,559.1600000000001" fill="#c0d7f1"/><path d="M 701.5 559.1600000000001 A 20.33 20.33 0 0 1  721.83 538.83 L 701.5 559.1600000000001 A 20.33 20.33 0 0 0 721.83 538.83" fill="#9cfce3"/><rect x="742.1666666666666" y="538.8333333333333" width="20.333333333333332" height="20.333333333333332" fill="#E6FAF5"/><path d="M 742.17 549 A 10.17 10.17 0 0 1  752.3399999999999 538.83 L 742.17 549 A 10.17 10.17 0 0 0 752.3399999999999 538.83" fill="#ccfbee"/><polygon points="762.5,538.83 762.5,549 752.33,549" fill="#8da9ec"/><polygon points="742.17,549 752.3399999999999,559.17 742.17,559.17" fill="#8ffce0"/><polygon points="752.33,549 762.5,549 752.33,559.17" fill="#7bfddb"/><path d="M 782.83 538.83 A 20.33 20.33 0 0 1  803.1600000000001 559.1600000000001 L 782.83 538.83 A 20.33 20.33 0 0 0 803.1600000000001 559.1600000000001" fill="#bdfbeb"/><rect x="823.4999999999999" y="538.8333333333333" width="20.333333333333332" height="20.333333333333332" fill="#E6FAF5"/><path d="M 823.5 538.83 A 10.17 10.17 0 0 1  833.67 549 L 823.5 538.83 A 10.17 10.17 0 0 0 833.67 549" fill="#5879e7"/><polygon points="833.67,538.83 843.8399999999999,549 833.67,549" fill="#b0fce8"/><path d="M 823.5 559.17 A 10.17 10.17 0 0 1  833.67 549 L 823.5 559.17 A 10.17 10.17 0 0 0 833.67 549" fill="#3256e3"/><path d="M 833.67 549 A 10.17 10.17 0 0 1  843.8399999999999 559.17 L 833.67 549 A 10.17 10.17 0 0 0 843.8399999999999 559.17" fill="#b0fce8"/><rect x="864.1666666666666" y="538.8333333333333" width="20.333333333333332" height="20.333333333333332" fill="#E6FAF5"/><polygon points="864.17,538.83 874.3399999999999,549 864.17,549" fill="#a0fce4"/><path d="M 874.33 549 A 10.17 10.17 0 0 1  884.5 538.83 L 874.33 549 A 10.17 10.17 0 0 0 884.5 538.83" fill="#a5bfef"/><polygon points="864.17,549 874.3399999999999,549 874.3399999999999,559.17" fill="#597ae7"/><polygon points="874.33,549 884.5,559.17 874.33,559.17" fill="#2147e2"/><polygon points="925.1600000000001,538.83 925.1600000000001,559.1600000000001 904.83,559.1600000000001" fill="#c7fbed"/><rect x="945.4999999999999" y="538.8333333333333" width="20.333333333333332" height="20.333333333333332" fill="#E6FAF5"/><path d="M 945.5 538.83 A 10.17 10.17 0 0 1  955.67 549 L 945.5 538.83 A 10.17 10.17 0 0 0 955.67 549" fill="#96fce1"/><polygon points="965.8399999999999,538.83 965.8399999999999,549 955.67,549" fill="#64fed5"/><polygon points="945.5,549 955.67,549 945.5,559.17" fill="#50fed0"/><path d="M 955.67 559.17 A 10.17 10.17 0 0 1  965.8399999999999 549 L 955.67 559.17 A 10.17 10.17 0 0 0 965.8399999999999 549" fill="#5b7be7"/><rect x="986.1666666666666" y="538.8333333333333" width="20.333333333333332" height="20.333333333333332" fill="#E6FAF5"/><polygon points="986.17,538.83 996.3399999999999,538.83 996.3399999999999,549" fill="#9db8ee"/><path d="M 996.33 549 A 10.17 10.17 0 0 1  1006.5 538.83 L 996.33 549 A 10.17 10.17 0 0 0 1006.5 538.83" fill="#365ae4"/><path d="M 986.17 559.17 A 10.17 10.17 0 0 1  996.3399999999999 549 L 986.17 559.17 A 10.17 10.17 0 0 0 996.3399999999999 549" fill="#94b0ed"/><path d="M 996.33 559.17 A 10.17 10.17 0 0 1  1006.5 549 L 996.33 559.17 A 10.17 10.17 0 0 0 1006.5 549" fill="#9efce3"/><rect x="1026.8333333333333" y="538.8333333333333" width="20.333333333333332" height="20.333333333333332" fill="#E6FAF5"/><path d="M 1026.83 549 A 10.17 10.17 0 0 1  1037 538.83 L 1026.83 549 A 10.17 10.17 0 0 0 1037 538.83" fill="#8bfddf"/><polygon points="1037,538.83 1047.17,538.83 1037,549" fill="#b1fbe8"/><path d="M 1026.83 549 A 10.17 10.17 0 0 1  1037 559.17 L 1026.83 549 A 10.17 10.17 0 0 0 1037 559.17" fill="#c6fbed"/><polygon points="1047.17,549 1047.17,559.17 1037,559.17" fill="#a0fce4"/><rect x="1067.5" y="538.8333333333333" width="20.333333333333332" height="20.333333333333332" fill="#E6FAF5"/><polygon points="1067.5,538.83 1077.67,549 1067.5,549" fill="#34ffc9"/><path d="M 1077.67 538.83 A 10.17 10.17 0 0 1  1087.8400000000001 549 L 1077.67 538.83 A 10.17 10.17 0 0 0 1087.8400000000001 549" fill="#1940e1"/><path d="M 1067.5 559.17 A 10.17 10.17 0 0 1  1077.67 549 L 1067.5 559.17 A 10.17 10.17 0 0 0 1077.67 549" fill="#61fed4"/><polygon points="1077.67,549 1087.8400000000001,549 1077.67,559.17" fill="#6989e9"/><rect x="1108.1666666666667" y="538.8333333333333" width="20.333333333333332" height="20.333333333333332" fill="#E6FAF5"/><path d="M 1108.17 538.83 A 10.17 10.17 0 0 1  1118.3400000000001 549 L 1108.17 538.83 A 10.17 10.17 0 0 0 1118.3400000000001 549" fill="#c5dcf2"/><path d="M 1118.33 538.83 A 10.17 10.17 0 0 1  1128.5 549 L 1118.33 538.83 A 10.17 10.17 0 0 0 1128.5 549" fill="#5e7ee8"/><polygon points="1118.3400000000001,549 1118.3400000000001,559.17 1108.17,559.17" fill="#83fddd"/><polygon points="1118.33,549 1128.5,559.17 1118.33,559.17" fill="#5b7ce8"/><rect x="1148.8333333333333" y="538.8333333333333" width="20.333333333333332" height="20.333333333333332" fill="#E6FAF5"/><path d="M 1148.83 549 A 10.17 10.17 0 0 1  1159 538.83 L 1148.83 549 A 10.17 10.17 0 0 0 1159 538.83" fill="#86fdde"/><polygon points="1159,538.83 1169.17,549 1159,549" fill="#99fce2"/><path d="M 1148.83 549 A 10.17 10.17 0 0 1  1159 559.17 L 1148.83 549 A 10.17 10.17 0 0 0 1159 559.17" fill="#4dfecf"/><polygon points="1169.17,549 1169.17,559.17 1159,559.17" fill="#a5fce5"/><rect x="1189.5" y="538.8333333333333" width="20.333333333333332" height="20.333333333333332" fill="#E6FAF5"/><path d="M 1189.5 538.83 A 10.17 10.17 0 0 1  1199.67 549 L 1189.5 538.83 A 10.17 10.17 0 0 0 1199.67 549" fill="#4467e5"/><polygon points="1199.67,538.83 1209.8400000000001,538.83 1199.67,549" fill="#8aa6ec"/><polygon points="1189.5,549 1199.67,559.17 1189.5,559.17" fill="#8fabed"/><polygon points="1209.8400000000001,549 1209.8400000000001,559.17 1199.67,559.17" fill="#b8d1f1"/><path d="M 1230.17 538.83 A 20.33 20.33 0 0 1  1250.5 559.1600000000001 L 1230.17 538.83 A 20.33 20.33 0 0 0 1250.5 559.1600000000001" fill="#bafbea"/><rect x="1270.8333333333333" y="538.8333333333333" width="20.333333333333332" height="20.333333333333332" fill="#E6FAF5"/><path d="M 1270.83 538.83 A 10.17 10.17 0 0 1  1281 549 L 1270.83 538.83 A 10.17 10.17 0 0 0 1281 549" fill="#1b42e1"/><path d="M 1281 538.83 A 10.17 10.17 0 0 1  1291.17 549 L 1281 538.83 A 10.17 10.17 0 0 0 1291.17 549" fill="#b6fbe9"/><path d="M 1270.83 559.17 A 10.17 10.17 0 0 1  1281 549 L 1270.83 559.17 A 10.17 10.17 0 0 0 1281 549" fill="#3dffcb"/><polygon points="1281,549 1291.17,559.17 1281,559.17" fill="#d1fbf0"/><path d="M 1311.5 559.1600000000001 A 20.33 20.33 0 0 1  1331.83 538.83 L 1311.5 559.1600000000001 A 20.33 20.33 0 0 0 1331.83 538.83" fill="#65fed5"/><rect x="1352.1666666666667" y="538.8333333333333" width="20.333333333333332" height="20.333333333333332" fill="#E6FAF5"/><path d="M 1352.17 549 A 10.17 10.17 0 0 1  1362.3400000000001 538.83 L 1352.17 549 A 10.17 10.17 0 0 0 1362.3400000000001 538.83" fill="#73fdd9"/><polygon points="1362.33,538.83 1372.5,538.83 1372.5,549" fill="#e1faf4"/><polygon points="1362.3400000000001,549 1362.3400000000001,559.17 1352.17,559.17" fill="#99fce2"/><polygon points="1362.33,549 1372.5,559.17 1362.33,559.17" fill="#5d7de8"/><rect x="1392.8333333333333" y="538.8333333333333" width="20.333333333333332" height="20.333333333333332" fill="#E6FAF5"/><path d="M 1392.83 538.83 A 10.17 10.17 0 0 1  1403 549 L 1392.83 538.83 A 10.17 10.17 0 0 0 1403 549" fill="#708fea"/><polygon points="1403,538.83 1413.17,538.83 1403,549" fill="#83fddd"/><polygon points="1392.83,549 1403,549 1392.83,559.17" fill="#86a3ec"/><polygon points="1403,549 1413.17,549 1403,559.17" fill="#84a1ec"/><polygon points="10.17,579.5 30.5,579.5 30.5,599.83" fill="#3a5ee4"/><rect x="50.83333333333333" y="579.4999999999999" width="20.333333333333332" height="20.333333333333332" fill="#E6FAF5"/><path d="M 50.83 589.67 A 10.17 10.17 0 0 1  61 579.5 L 50.83 589.67 A 10.17 10.17 0 0 0 61 579.5" fill="#5576e7"/><polygon points="61,579.5 71.17,589.67 61,589.67" fill="#98b3ed"/><polygon points="50.83,589.67 61,589.67 61,599.8399999999999" fill="#60fed4"/><polygon points="71.17,589.67 71.17,599.8399999999999 61,599.8399999999999" fill="#72fdd8"/><rect x="91.5" y="579.4999999999999" width="20.333333333333332" height="20.333333333333332" fill="#E6FAF5"/><path d="M 91.5 589.67 A 10.17 10.17 0 0 1  101.67 579.5 L 91.5 589.67 A 10.17 10.17 0 0 0 101.67 579.5" fill="#acc6ef"/><polygon points="101.67,579.5 111.84,579.5 101.67,589.67" fill="#6989e9"/><path d="M 91.5 589.67 A 10.17 10.17 0 0 1  101.67 599.8399999999999 L 91.5 589.67 A 10.17 10.17 0 0 0 101.67 599.8399999999999" fill="#b9fbea"/><polygon points="101.67,589.67 111.84,589.67 101.67,599.8399999999999" fill="#7190ea"/><path d="M 132.17 599.83 A 20.33 20.33 0 0 1  152.5 579.5 L 132.17 599.83 A 20.33 20.33 0 0 0 152.5 579.5" fill="#a4beef"/><path d="M 172.83 599.83 A 20.33 20.33 0 0 1  193.16000000000003 579.5 L 172.83 599.83 A 20.33 20.33 0 0 0 193.16000000000003 579.5" fill="#9afce2"/><rect x="213.49999999999997" y="579.4999999999999" width="20.333333333333332" height="20.333333333333332" fill="#E6FAF5"/><path d="M 213.5 589.67 A 10.17 10.17 0 0 1  223.67 579.5 L 213.5 589.67 A 10.17 10.17 0 0 0 223.67 579.5" fill="#88a5ec"/><path d="M 223.67 589.67 A 10.17 10.17 0 0 1  233.83999999999997 579.5 L 223.67 589.67 A 10.17 10.17 0 0 0 233.83999999999997 579.5" fill="#a8c2ef"/><path d="M 213.5 589.67 A 10.17 10.17 0 0 1  223.67 599.8399999999999 L 213.5 589.67 A 10.17 10.17 0 0 0 223.67 599.8399999999999" fill="#4064e5"/><polygon points="233.83999999999997,589.67 233.83999999999997,599.8399999999999 223.67,599.8399999999999" fill="#cbe1f2"/><polygon points="274.5,579.5 274.5,599.83 254.17,599.83" fill="#cafbee"/><path d="M 294.83 599.83 A 20.33 20.33 0 0 1  315.15999999999997 579.5 L 294.83 599.83 A 20.33 20.33 0 0 0 315.15999999999997 579.5" fill="#64fed5"/><rect x="335.5" y="579.4999999999999" width="20.333333333333332" height="20.333333333333332" fill="#E6FAF5"/><polygon points="335.5,579.5 345.67,579.5 335.5,589.67" fill="#1a41e1"/><polygon points="345.67,579.5 355.84000000000003,579.5 345.67,589.67" fill="#3b5fe4"/><polygon points="335.5,589.67 345.67,599.8399999999999 335.5,599.8399999999999" fill="#54fed1"/><path d="M 345.67 599.8399999999999 A 10.17 10.17 0 0 1  355.84000000000003 589.67 L 345.67 599.8399999999999 A 10.17 10.17 0 0 0 355.84000000000003 589.67" fill="#8aa7ec"/><rect x="376.1666666666667" y="579.4999999999999" width="20.333333333333332" height="20.333333333333332" fill="#E6FAF5"/><path d="M 376.17 579.5 A 10.17 10.17 0 0 1  386.34000000000003 589.67 L 376.17 579.5 A 10.17 10.17 0 0 0 386.34000000000003 589.67" fill="#2046e2"/><polygon points="396.5,579.5 396.5,589.67 386.33,589.67" fill="#3bffcb"/><polygon points="376.17,589.67 386.34000000000003,589.67 386.34000000000003,599.8399999999999" fill="#73fdd9"/><path d="M 386.33 599.8399999999999 A 10.17 10.17 0 0 1  396.5 589.67 L 386.33 599.8399999999999 A 10.17 10.17 0 0 0 396.5 589.67" fill="#8da9ec"/><path d="M 416.83 599.83 A 20.33 20.33 0 0 1  437.15999999999997 579.5 L 416.83 599.83 A 20.33 20.33 0 0 0 437.15999999999997 579.5" fill="#3357e4"/><path d="M 457.5 579.5 A 20.33 20.33 0 0 1  477.83 599.83 L 457.5 579.5 A 20.33 20.33 0 0 0 477.83 599.83" fill="#45fece"/><polygon points="498.17,579.5 518.5,579.5 518.5,599.83" fill="#5efed3"/><rect x="538.8333333333333" y="579.4999999999999" width="20.333333333333332" height="20.333333333333332" fill="#E6FAF5"/><polygon points="549,579.5 549,589.67 538.83,589.67" fill="#62fed5"/><polygon points="549,579.5 559.17,579.5 549,589.67" fill="#cefbef"/><path d="M 538.83 589.67 A 10.17 10.17 0 0 1  549 599.8399999999999 L 538.83 589.67 A 10.17 10.17 0 0 0 549 599.8399999999999" fill="#4b6de6"/><path d="M 549 599.8399999999999 A 10.17 10.17 0 0 1  559.17 589.67 L 549 599.8399999999999 A 10.17 10.17 0 0 0 559.17 589.67" fill="#8ba7ec"/><path d="M 579.5 579.5 A 20.33 20.33 0 0 1  599.83 599.83 L 579.5 579.5 A 20.33 20.33 0 0 0 599.83 599.83" fill="#7b99eb"/><path d="M 620.17 599.83 A 20.33 20.33 0 0 1  640.5 579.5 L 620.17 599.83 A 20.33 20.33 0 0 0 640.5 579.5" fill="#d1e7f3"/><polygon points="660.83,579.5 681.1600000000001,579.5 681.1600000000001,599.83" fill="#4ffed0"/><rect x="701.4999999999999" y="579.4999999999999" width="20.333333333333332" height="20.333333333333332" fill="#E6FAF5"/><polygon points="701.5,579.5 711.67,579.5 701.5,589.67" fill="#8fabed"/><polygon points="711.67,579.5 721.8399999999999,589.67 711.67,589.67" fill="#d1fbf0"/><path d="M 701.5 599.8399999999999 A 10.17 10.17 0 0 1  711.67 589.67 L 701.5 599.8399999999999 A 10.17 10.17 0 0 0 711.67 589.67" fill="#aafce6"/><path d="M 711.67 589.67 A 10.17 10.17 0 0 1  721.8399999999999 599.8399999999999 L 711.67 589.67 A 10.17 10.17 0 0 0 721.8399999999999 599.8399999999999" fill="#83fddd"/><rect x="742.1666666666666" y="579.4999999999999" width="20.333333333333332" height="20.333333333333332" fill="#E6FAF5"/><polygon points="742.17,579.5 752.3399999999999,579.5 752.3399999999999,589.67" fill="#e1f6f5"/><path d="M 752.33 589.67 A 10.17 10.17 0 0 1  762.5 579.5 L 752.33 589.67 A 10.17 10.17 0 0 0 762.5 579.5" fill="#34ffc9"/><path d="M 742.17 599.8399999999999 A 10.17 10.17 0 0 1  752.3399999999999 589.67 L 742.17 599.8399999999999 A 10.17 10.17 0 0 0 752.3399999999999 589.67" fill="#affce7"/><path d="M 752.33 599.8399999999999 A 10.17 10.17 0 0 1  762.5 589.67 L 752.33 599.8399999999999 A 10.17 10.17 0 0 0 762.5 589.67" fill="#cafbee"/><rect x="782.8333333333333" y="579.4999999999999" width="20.333333333333332" height="20.333333333333332" fill="#E6FAF5"/><path d="M 782.83 579.5 A 10.17 10.17 0 0 1  793 589.67 L 782.83 579.5 A 10.17 10.17 0 0 0 793 589.67" fill="#3559e4"/><path d="M 793 589.67 A 10.17 10.17 0 0 1  803.17 579.5 L 793 589.67 A 10.17 10.17 0 0 0 803.17 579.5" fill="#809deb"/><path d="M 782.83 599.8399999999999 A 10.17 10.17 0 0 1  793 589.67 L 782.83 599.8399999999999 A 10.17 10.17 0 0 0 793 589.67" fill="#a4bfef"/><path d="M 793 599.8399999999999 A 10.17 10.17 0 0 1  803.17 589.67 L 793 599.8399999999999 A 10.17 10.17 0 0 0 803.17 589.67" fill="#72fdd9"/><polygon points="823.5,579.5 843.83,599.83 823.5,599.83" fill="#496ce6"/><rect x="864.1666666666666" y="579.4999999999999" width="20.333333333333332" height="20.333333333333332" fill="#E6FAF5"/><path d="M 864.17 589.67 A 10.17 10.17 0 0 1  874.3399999999999 579.5 L 864.17 589.67 A 10.17 10.17 0 0 0 874.3399999999999 579.5" fill="#91aded"/><polygon points="884.5,579.5 884.5,589.67 874.33,589.67" fill="#68fed6"/><polygon points="864.17,589.67 874.3399999999999,589.67 874.3399999999999,599.8399999999999" fill="#2349e2"/><path d="M 874.33 589.67 A 10.17 10.17 0 0 1  884.5 599.8399999999999 L 874.33 589.67 A 10.17 10.17 0 0 0 884.5 599.8399999999999" fill="#9cb7ee"/><rect x="904.8333333333333" y="579.4999999999999" width="20.333333333333332" height="20.333333333333332" fill="#E6FAF5"/><path d="M 904.83 589.67 A 10.17 10.17 0 0 1  915 579.5 L 904.83 589.67 A 10.17 10.17 0 0 0 915 579.5" fill="#76fdd9"/><path d="M 915 589.67 A 10.17 10.17 0 0 1  925.17 579.5 L 915 589.67 A 10.17 10.17 0 0 0 925.17 579.5" fill="#b4cdf0"/><polygon points="904.83,589.67 915,599.8399999999999 904.83,599.8399999999999" fill="#dff4f4"/><path d="M 915 589.67 A 10.17 10.17 0 0 1  925.17 599.8399999999999 L 915 589.67 A 10.17 10.17 0 0 0 925.17 599.8399999999999" fill="#c9dff2"/><path d="M 945.5 599.83 A 20.33 20.33 0 0 1  965.83 579.5 L 945.5 599.83 A 20.33 20.33 0 0 0 965.83 579.5" fill="#a3fce5"/><rect x="986.1666666666666" y="579.4999999999999" width="20.333333333333332" height="20.333333333333332" fill="#E6FAF5"/><polygon points="996.3399999999999,579.5 996.3399999999999,589.67 986.17,589.67" fill="#d7ecf4"/><path d="M 996.33 579.5 A 10.17 10.17 0 0 1  1006.5 589.67 L 996.33 579.5 A 10.17 10.17 0 0 0 1006.5 589.67" fill="#2147e2"/><path d="M 986.17 599.8399999999999 A 10.17 10.17 0 0 1  996.3399999999999 589.67 L 986.17 599.8399999999999 A 10.17 10.17 0 0 0 996.3399999999999 589.67" fill="#bdfbeb"/><polygon points="996.33,589.67 1006.5,599.8399999999999 996.33,599.8399999999999" fill="#9efce3"/><rect x="1026.8333333333333" y="579.4999999999999" width="20.333333333333332" height="20.333333333333332" fill="#E6FAF5"/><path d="M 1026.83 589.67 A 10.17 10.17 0 0 1  1037 579.5 L 1026.83 589.67 A 10.17 10.17 0 0 0 1037 579.5" fill="#5e7ee8"/><polygon points="1037,579.5 1047.17,579.5 1047.17,589.67" fill="#99b4ee"/><polygon points="1026.83,589.67 1037,589.67 1037,599.8399999999999" fill="#b8fbea"/><path d="M 1037 599.8399999999999 A 10.17 10.17 0 0 1  1047.17 589.67 L 1037 599.8399999999999 A 10.17 10.17 0 0 0 1047.17 589.67" fill="#b9d1f1"/><polygon points="1067.5,579.5 1087.83,579.5 1067.5,599.83" fill="#e4faf5"/><polygon points="1108.17,579.5 1128.5,579.5 1108.17,599.83" fill="#ccfbef"/><path d="M 1148.83 599.83 A 20.33 20.33 0 0 1  1169.1599999999999 579.5 L 1148.83 599.83 A 20.33 20.33 0 0 0 1169.1599999999999 579.5" fill="#7897ea"/><rect x="1189.5" y="579.4999999999999" width="20.333333333333332" height="20.333333333333332" fill="#E6FAF5"/><path d="M 1189.5 579.5 A 10.17 10.17 0 0 1  1199.67 589.67 L 1189.5 579.5 A 10.17 10.17 0 0 0 1199.67 589.67" fill="#c1d9f1"/><polygon points="1209.8400000000001,579.5 1209.8400000000001,589.67 1199.67,589.67" fill="#5375e7"/><path d="M 1189.5 589.67 A 10.17 10.17 0 0 1  1199.67 599.8399999999999 L 1189.5 589.67 A 10.17 10.17 0 0 0 1199.67 599.8399999999999" fill="#c7fbed"/><path d="M 1199.67 599.8399999999999 A 10.17 10.17 0 0 1  1209.8400000000001 589.67 L 1199.67 599.8399999999999 A 10.17 10.17 0 0 0 1209.8400000000001 589.67" fill="#70fdd8"/><path d="M 1230.17 579.5 A 20.33 20.33 0 0 1  1250.5 599.83 L 1230.17 579.5 A 20.33 20.33 0 0 0 1250.5 599.83" fill="#c4dbf2"/><path d="M 1270.83 599.83 A 20.33 20.33 0 0 1  1291.1599999999999 579.5 L 1270.83 599.83 A 20.33 20.33 0 0 0 1291.1599999999999 579.5" fill="#2d52e3"/><rect x="1311.5" y="579.4999999999999" width="20.333333333333332" height="20.333333333333332" fill="#E6FAF5"/><path d="M 1311.5 589.67 A 10.17 10.17 0 0 1  1321.67 579.5 L 1311.5 589.67 A 10.17 10.17 0 0 0 1321.67 579.5" fill="#2a4fe3"/><polygon points="1321.67,579.5 1331.8400000000001,579.5 1321.67,589.67" fill="#affce7"/><path d="M 1311.5 589.67 A 10.17 10.17 0 0 1  1321.67 599.8399999999999 L 1311.5 589.67 A 10.17 10.17 0 0 0 1321.67 599.8399999999999" fill="#3055e3"/><path d="M 1321.67 599.8399999999999 A 10.17 10.17 0 0 1  1331.8400000000001 589.67 L 1321.67 599.8399999999999 A 10.17 10.17 0 0 0 1331.8400000000001 589.67" fill="#6ffdd8"/><rect x="1352.1666666666667" y="579.4999999999999" width="20.333333333333332" height="20.333333333333332" fill="#E6FAF5"/><polygon points="1352.17,579.5 1362.3400000000001,579.5 1352.17,589.67" fill="#d5faf1"/><path d="M 1362.33 589.67 A 10.17 10.17 0 0 1  1372.5 579.5 L 1362.33 589.67 A 10.17 10.17 0 0 0 1372.5 579.5" fill="#bffbec"/><path d="M 1352.17 589.67 A 10.17 10.17 0 0 1  1362.3400000000001 599.8399999999999 L 1352.17 589.67 A 10.17 10.17 0 0 0 1362.3400000000001 599.8399999999999" fill="#b9d1f1"/><path d="M 1362.33 589.67 A 10.17 10.17 0 0 1  1372.5 599.8399999999999 L 1362.33 589.67 A 10.17 10.17 0 0 0 1372.5 599.8399999999999" fill="#64fed5"/><polygon points="1413.1599999999999,579.5 1413.1599999999999,599.83 1392.83,599.83" fill="#42ffcd"/></g></svg>