<?xml version="1.0" standalone="no"?><svg xmlns:xlink="http://www.w3.org/1999/xlink" xmlns="http://www.w3.org/2000/svg" viewBox="0 0 2100 1181.2548412083656" preserveAspectRatio="xMaxYMax slice"><g transform="scale(1.9364833462432223)"><rect x="0" y="0" width="1084.4444444444443" height="610" fill="#ffffff"/><rect x="345.66666666666663" y="74.55555555555554" width="54.222222222222214" height="54.222222222222214" fill="#ffffff"/><path d="M 413.44 74.56 A 54.22 54.22 0 0 1  467.65999999999997 128.78 L 413.44 74.56 A 54.22 54.22 0 0 0 467.65999999999997 128.78" fill="#ff7a9a"/><path d="M 413.44 196.55 A 54.22 54.22 0 0 1  467.65999999999997 142.33 L 413.44 196.55 A 54.22 54.22 0 0 0 467.65999999999997 142.33" fill="#8095ee"/><rect x="549" y="142.33333333333331" width="54.222222222222214" height="54.222222222222214" fill="#ffffff"/><path d="M 576.11 169.44 A 27.11 27.11 0 0 1  603.22 142.33 L 576.11 169.44 A 27.11 27.11 0 0 0 603.22 142.33" fill="#ced7f9"/><path d="M 549 169.44 A 27.11 27.11 0 0 1  576.11 196.55 L 549 169.44 A 27.11 27.11 0 0 0 576.11 196.55" fill="#5c77ea"/><rect x="616.7777777777778" y="142.33333333333331" width="54.222222222222214" height="54.222222222222214" fill="#ffffff"/><path d="M 616.78 142.33 A 27.11 27.11 0 0 1  643.89 169.44 L 616.78 142.33 A 27.11 27.11 0 0 0 643.89 169.44" fill="#ff3d6b"/><path d="M 616.78 169.44 A 27.11 27.11 0 0 1  643.89 196.55 L 616.78 169.44 A 27.11 27.11 0 0 0 643.89 196.55" fill="#ff7495"/><path d="M 643.89 196.55 A 27.11 27.11 0 0 1  671 169.44 L 643.89 196.55 A 27.11 27.11 0 0 0 671 169.44" fill="#ffd6df"/><rect x="684.5555555555555" y="142.33333333333331" width="54.222222222222214" height="54.222222222222214" fill="#ffffff"/><path d="M 684.56 169.44 A 27.11 27.11 0 0 1  711.67 196.55 L 684.56 169.44 A 27.11 27.11 0 0 0 711.67 196.55" fill="#ff83a0"/><path d="M 711.67 169.44 A 27.11 27.11 0 0 1  738.78 196.55 L 711.67 169.44 A 27.11 27.11 0 0 0 738.78 196.55" fill="#dfe5fb"/><rect x="887.8888888888889" y="142.33333333333331" width="54.222222222222214" height="54.222222222222214" fill="#ffffff"/><path d="M 277.89 264.33000000000004 A 54.22 54.22 0 0 1  332.11 210.11 L 277.89 264.33000000000004 A 54.22 54.22 0 0 0 332.11 210.11" fill="#9daef2"/><rect x="549" y="210.1111111111111" width="54.222222222222214" height="54.222222222222214" fill="#ffffff"/><path d="M 549 237.22000000000003 A 27.11 27.11 0 0 1  576.11 210.11 L 549 237.22000000000003 A 27.11 27.11 0 0 0 576.11 210.11" fill="#738bed"/><path d="M 576.11 210.11 A 27.11 27.11 0 0 1  603.22 237.22000000000003 L 576.11 210.11 A 27.11 27.11 0 0 0 603.22 237.22000000000003" fill="#ffedf1"/><path d="M 549 237.22 A 27.11 27.11 0 0 1  576.11 264.33 L 549 237.22 A 27.11 27.11 0 0 0 576.11 264.33" fill="#ffc6d4"/><path d="M 576.11 264.33 A 27.11 27.11 0 0 1  603.22 237.22 L 576.11 264.33 A 27.11 27.11 0 0 0 603.22 237.22" fill="#859aef"/><rect x="616.7777777777778" y="210.1111111111111" width="54.222222222222214" height="54.222222222222214" fill="#ffffff"/><path d="M 616.78 237.22000000000003 A 27.11 27.11 0 0 1  643.89 210.11 L 616.78 237.22000000000003 A 27.11 27.11 0 0 0 643.89 210.11" fill="#ff92ac"/><path d="M 643.89 210.11 A 27.11 27.11 0 0 1  671 237.22000000000003 L 643.89 210.11 A 27.11 27.11 0 0 0 671 237.22000000000003" fill="#ffdfe7"/><path d="M 616.78 264.33 A 27.11 27.11 0 0 1  643.89 237.22 L 616.78 264.33 A 27.11 27.11 0 0 0 643.89 237.22" fill="#ff537c"/><path d="M 643.89 264.33 A 27.11 27.11 0 0 1  671 237.22 L 643.89 264.33 A 27.11 27.11 0 0 0 671 237.22" fill="#2146e2"/><rect x="684.5555555555555" y="210.1111111111111" width="54.222222222222214" height="54.222222222222214" fill="#ffffff"/><path d="M 684.56 237.22000000000003 A 27.11 27.11 0 0 1  711.67 210.11 L 684.56 237.22000000000003 A 27.11 27.11 0 0 0 711.67 210.11" fill="#f1f3fd"/><path d="M 711.67 237.22000000000003 A 27.11 27.11 0 0 1  738.78 210.11 L 711.67 237.22000000000003 A 27.11 27.11 0 0 0 738.78 210.11" fill="#99aaf2"/><path d="M 684.56 264.33 A 27.11 27.11 0 0 1  711.67 237.22 L 684.56 264.33 A 27.11 27.11 0 0 0 711.67 237.22" fill="#d7ddfa"/><path d="M 711.67 264.33 A 27.11 27.11 0 0 1  738.78 237.22 L 711.67 264.33 A 27.11 27.11 0 0 0 738.78 237.22" fill="#ffdee5"/><rect x="752.3333333333333" y="210.1111111111111" width="54.222222222222214" height="54.222222222222214" fill="#ffffff"/><path d="M 752.33 210.11 A 27.11 27.11 0 0 1  779.44 237.22000000000003 L 752.33 210.11 A 27.11 27.11 0 0 0 779.44 237.22000000000003" fill="#ffe6ec"/><path d="M 779.44 237.22000000000003 A 27.11 27.11 0 0 1  806.5500000000001 210.11 L 779.44 237.22000000000003 A 27.11 27.11 0 0 0 806.5500000000001 210.11" fill="#a0b0f3"/><path d="M 752.33 264.33 A 27.11 27.11 0 0 1  779.44 237.22 L 752.33 264.33 A 27.11 27.11 0 0 0 779.44 237.22" fill="#ffb4c6"/><path d="M 779.44 237.22 A 27.11 27.11 0 0 1  806.5500000000001 264.33 L 779.44 237.22 A 27.11 27.11 0 0 0 806.5500000000001 264.33" fill="#eef1fd"/><rect x="820.1111111111111" y="210.1111111111111" width="54.222222222222214" height="54.222222222222214" fill="#ffffff"/><path d="M 847.22 237.22000000000003 A 27.11 27.11 0 0 1  874.33 210.11 L 847.22 237.22000000000003 A 27.11 27.11 0 0 0 874.33 210.11" fill="#fffdfd"/><path d="M 820.11 237.22 A 27.11 27.11 0 0 1  847.22 264.33 L 820.11 237.22 A 27.11 27.11 0 0 0 847.22 264.33" fill="#ff8ea9"/><path d="M 847.22 237.22 A 27.11 27.11 0 0 1  874.33 264.33 L 847.22 237.22 A 27.11 27.11 0 0 0 874.33 264.33" fill="#fff0f4"/><path d="M 887.89 210.11 A 54.22 54.22 0 0 1  942.11 264.33000000000004 L 887.89 210.11 A 54.22 54.22 0 0 0 942.11 264.33000000000004" fill="#879bef"/><rect x="277.88888888888886" y="277.88888888888886" width="54.222222222222214" height="54.222222222222214" fill="#ffffff"/><path d="M 277.89 305 A 27.11 27.11 0 0 1  305 277.89 L 277.89 305 A 27.11 27.11 0 0 0 305 277.89" fill="#fff5f7"/><path d="M 305 305 A 27.11 27.11 0 0 1  332.11 332.11 L 305 305 A 27.11 27.11 0 0 0 332.11 332.11" fill="#5c77ea"/><rect x="413.4444444444444" y="277.88888888888886" width="54.222222222222214" height="54.222222222222214" fill="#ffffff"/><path d="M 440.56 277.89 A 27.11 27.11 0 0 1  467.67 305 L 440.56 277.89 A 27.11 27.11 0 0 0 467.67 305" fill="#879bef"/><path d="M 413.44 332.11 A 27.11 27.11 0 0 1  440.55 305 L 413.44 332.11 A 27.11 27.11 0 0 0 440.55 305" fill="#ff94ad"/><path d="M 481.22 332.11 A 54.22 54.22 0 0 1  535.44 277.89 L 481.22 332.11 A 54.22 54.22 0 0 0 535.44 277.89" fill="#788eed"/><rect x="549" y="277.88888888888886" width="54.222222222222214" height="54.222222222222214" fill="#ffffff"/><path d="M 549 277.89 A 27.11 27.11 0 0 1  576.11 305 L 549 277.89 A 27.11 27.11 0 0 0 576.11 305" fill="#ffe3e9"/><path d="M 576.11 277.89 A 27.11 27.11 0 0 1  603.22 305 L 576.11 277.89 A 27.11 27.11 0 0 0 603.22 305" fill="#ff557d"/><path d="M 549 332.11 A 27.11 27.11 0 0 1  576.11 305 L 549 332.11 A 27.11 27.11 0 0 0 576.11 305" fill="#afbdf5"/><path d="M 576.11 332.11 A 27.11 27.11 0 0 1  603.22 305 L 576.11 332.11 A 27.11 27.11 0 0 0 603.22 305" fill="#2f52e4"/><path d="M 616.78 277.89 A 54.22 54.22 0 0 1  671 332.11 L 616.78 277.89 A 54.22 54.22 0 0 0 671 332.11" fill="#6e86ec"/><path d="M 684.56 277.89 A 54.22 54.22 0 0 1  738.78 332.11 L 684.56 277.89 A 54.22 54.22 0 0 0 738.78 332.11" fill="#ff3e6c"/><rect x="820.1111111111111" y="277.88888888888886" width="54.222222222222214" height="54.222222222222214" fill="#ffffff"/><path d="M 820.11 277.89 A 27.11 27.11 0 0 1  847.22 305 L 820.11 277.89 A 27.11 27.11 0 0 0 847.22 305" fill="#ff7193"/><path d="M 847.22 305 A 27.11 27.11 0 0 1  874.33 277.89 L 847.22 305 A 27.11 27.11 0 0 0 874.33 277.89" fill="#2147e2"/><path d="M 820.11 332.11 A 27.11 27.11 0 0 1  847.22 305 L 820.11 332.11 A 27.11 27.11 0 0 0 847.22 305" fill="#3557e5"/><path d="M 847.22 305 A 27.11 27.11 0 0 1  874.33 332.11 L 847.22 305 A 27.11 27.11 0 0 0 874.33 332.11" fill="#a3b3f3"/><path d="M 887.89 277.89 A 54.22 54.22 0 0 1  942.11 332.11 L 887.89 277.89 A 54.22 54.22 0 0 0 942.11 332.11" fill="#9bacf2"/><path d="M 277.89 399.89 A 54.22 54.22 0 0 1  332.11 345.67 L 277.89 399.89 A 54.22 54.22 0 0 0 332.11 345.67" fill="#b8c4f6"/><rect x="345.66666666666663" y="345.66666666666663" width="54.222222222222214" height="54.222222222222214" fill="#ffffff"/><path d="M 345.67 372.78000000000003 A 27.11 27.11 0 0 1  372.78000000000003 345.67 L 345.67 372.78000000000003 A 27.11 27.11 0 0 0 372.78000000000003 345.67" fill="#ff90aa"/><path d="M 372.78 345.67 A 27.11 27.11 0 0 1  399.89 372.78000000000003 L 372.78 345.67 A 27.11 27.11 0 0 0 399.89 372.78000000000003" fill="#ffa5ba"/><path d="M 345.67 399.89 A 27.11 27.11 0 0 1  372.78000000000003 372.78 L 345.67 399.89 A 27.11 27.11 0 0 0 372.78000000000003 372.78" fill="#ff4571"/><path d="M 372.78 372.78 A 27.11 27.11 0 0 1  399.89 399.89 L 372.78 372.78 A 27.11 27.11 0 0 0 399.89 399.89" fill="#ffaec2"/><rect x="413.4444444444444" y="345.66666666666663" width="54.222222222222214" height="54.222222222222214" fill="#ffffff"/><path d="M 413.44 372.78000000000003 A 27.11 27.11 0 0 1  440.55 345.67 L 413.44 372.78000000000003 A 27.11 27.11 0 0 0 440.55 345.67" fill="#2c4fe4"/><path d="M 440.56 345.67 A 27.11 27.11 0 0 1  467.67 372.78000000000003 L 440.56 345.67 A 27.11 27.11 0 0 0 467.67 372.78000000000003" fill="#ff6d90"/><path d="M 413.44 399.89 A 27.11 27.11 0 0 1  440.55 372.78 L 413.44 399.89 A 27.11 27.11 0 0 0 440.55 372.78" fill="#8196ef"/><path d="M 440.56 372.78 A 27.11 27.11 0 0 1  467.67 399.89 L 440.56 372.78 A 27.11 27.11 0 0 0 467.67 399.89" fill="#dce2fa"/><path d="M 481.22 399.89 A 54.22 54.22 0 0 1  535.44 345.67 L 481.22 399.89 A 54.22 54.22 0 0 0 535.44 345.67" fill="#ff3665"/><rect x="549" y="345.66666666666663" width="54.222222222222214" height="54.222222222222214" fill="#ffffff"/><path d="M 549 372.78000000000003 A 27.11 27.11 0 0 1  576.11 345.67 L 549 372.78000000000003 A 27.11 27.11 0 0 0 576.11 345.67" fill="#ff5c83"/><path d="M 576.11 372.78000000000003 A 27.11 27.11 0 0 1  603.22 345.67 L 576.11 372.78000000000003 A 27.11 27.11 0 0 0 603.22 345.67" fill="#c3cdf7"/><path d="M 549 372.78 A 27.11 27.11 0 0 1  576.11 399.89 L 549 372.78 A 27.11 27.11 0 0 0 576.11 399.89" fill="#ffffff"/><path d="M 576.11 399.89 A 27.11 27.11 0 0 1  603.22 372.78 L 576.11 399.89 A 27.11 27.11 0 0 0 603.22 372.78" fill="#ff3968"/><path d="M 616.78 345.67 A 54.22 54.22 0 0 1  671 399.89 L 616.78 345.67 A 54.22 54.22 0 0 0 671 399.89" fill="#f6f7fe"/><rect x="684.5555555555555" y="345.66666666666663" width="54.222222222222214" height="54.222222222222214" fill="#ffffff"/><path d="M 684.56 345.67 A 27.11 27.11 0 0 1  711.67 372.78000000000003 L 684.56 345.67 A 27.11 27.11 0 0 0 711.67 372.78000000000003" fill="#ff5b82"/><path d="M 711.67 372.78000000000003 A 27.11 27.11 0 0 1  738.78 345.67 L 711.67 372.78000000000003 A 27.11 27.11 0 0 0 738.78 345.67" fill="#ff3c6b"/><path d="M 684.56 372.78 A 27.11 27.11 0 0 1  711.67 399.89 L 684.56 372.78 A 27.11 27.11 0 0 0 711.67 399.89" fill="#ff85a2"/><path d="M 711.67 399.89 A 27.11 27.11 0 0 1  738.78 372.78 L 711.67 399.89 A 27.11 27.11 0 0 0 738.78 372.78" fill="#d6ddfa"/><rect x="752.3333333333333" y="345.66666666666663" width="54.222222222222214" height="54.222222222222214" fill="#ffffff"/><path d="M 752.33 372.78000000000003 A 27.11 27.11 0 0 1  779.44 345.67 L 752.33 372.78000000000003 A 27.11 27.11 0 0 0 779.44 345.67" fill="#ff6489"/><path d="M 752.33 399.89 A 27.11 27.11 0 0 1  779.44 372.78 L 752.33 399.89 A 27.11 27.11 0 0 0 779.44 372.78" fill="#ffdce4"/><path d="M 779.44 399.89 A 27.11 27.11 0 0 1  806.5500000000001 372.78 L 779.44 399.89 A 27.11 27.11 0 0 0 806.5500000000001 372.78" fill="#879cef"/><path d="M 820.11 345.67 A 54.22 54.22 0 0 1  874.33 399.89 L 820.11 345.67 A 54.22 54.22 0 0 0 874.33 399.89" fill="#ff5f85"/><path d="M 887.89 399.89 A 54.22 54.22 0 0 1  942.11 345.67 L 887.89 399.89 A 54.22 54.22 0 0 0 942.11 345.67" fill="#5c78ea"/><rect x="955.6666666666666" y="345.66666666666663" width="54.222222222222214" height="54.222222222222214" fill="#ffffff"/><path d="M 982.78 345.67 A 27.11 27.11 0 0 1  1009.89 372.78000000000003 L 982.78 345.67 A 27.11 27.11 0 0 0 1009.89 372.78000000000003" fill="#ff527b"/><path d="M 955.67 372.78 A 27.11 27.11 0 0 1  982.78 399.89 L 955.67 372.78 A 27.11 27.11 0 0 0 982.78 399.89" fill="#2449e3"/><path d="M 210.11 413.44 A 54.22 54.22 0 0 1  264.33000000000004 467.65999999999997 L 210.11 413.44 A 54.22 54.22 0 0 0 264.33000000000004 467.65999999999997" fill="#ff3c6a"/><path d="M 549 413.44 A 54.22 54.22 0 0 1  603.22 467.65999999999997 L 549 413.44 A 54.22 54.22 0 0 0 603.22 467.65999999999997" fill="#99aaf2"/><rect x="616.7777777777778" y="413.4444444444444" width="54.222222222222214" height="54.222222222222214" fill="#ffffff"/><path d="M 616.78 440.55 A 27.11 27.11 0 0 1  643.89 413.44 L 616.78 440.55 A 27.11 27.11 0 0 0 643.89 413.44" fill="#9faff3"/><path d="M 643.89 413.44 A 27.11 27.11 0 0 1  671 440.55 L 643.89 413.44 A 27.11 27.11 0 0 0 671 440.55" fill="#a1b1f3"/><path d="M 616.78 467.67 A 27.11 27.11 0 0 1  643.89 440.56 L 616.78 467.67 A 27.11 27.11 0 0 0 643.89 440.56" fill="#ffb6c8"/><path d="M 684.56 467.65999999999997 A 54.22 54.22 0 0 1  738.78 413.44 L 684.56 467.65999999999997 A 54.22 54.22 0 0 0 738.78 413.44" fill="#b8c4f6"/><rect x="820.1111111111111" y="413.4444444444444" width="54.222222222222214" height="54.222222222222214" fill="#ffffff"/><path d="M 820.11 440.55 A 27.11 27.11 0 0 1  847.22 413.44 L 820.11 440.55 A 27.11 27.11 0 0 0 847.22 413.44" fill="#ff698c"/><path d="M 820.11 467.67 A 27.11 27.11 0 0 1  847.22 440.56 L 820.11 467.67 A 27.11 27.11 0 0 0 847.22 440.56" fill="#ffacc0"/><path d="M 847.22 467.67 A 27.11 27.11 0 0 1  874.33 440.56 L 847.22 467.67 A 27.11 27.11 0 0 0 874.33 440.56" fill="#ff6b8e"/><path d="M 74.56 481.22 A 54.22 54.22 0 0 1  128.78 535.44 L 74.56 481.22 A 54.22 54.22 0 0 0 128.78 535.44" fill="#ff9eb5"/><path d="M 413.44 535.44 A 54.22 54.22 0 0 1  467.65999999999997 481.22 L 413.44 535.44 A 54.22 54.22 0 0 0 467.65999999999997 481.22" fill="#8ea1f0"/><path d="M 616.78 535.44 A 54.22 54.22 0 0 1  671 481.22 L 616.78 535.44 A 54.22 54.22 0 0 0 671 481.22" fill="#ff809e"/><path d="M 684.56 535.44 A 54.22 54.22 0 0 1  738.78 481.22 L 684.56 535.44 A 54.22 54.22 0 0 0 738.78 481.22" fill="#a6b5f3"/><rect x="345.66666666666663" y="549" width="54.222222222222214" height="54.222222222222214" fill="#ffffff"/><path d="M 413.44 603.22 A 54.22 54.22 0 0 1  467.65999999999997 549 L 413.44 603.22 A 54.22 54.22 0 0 0 467.65999999999997 549" fill="#ffd8e2"/></g></svg>