<?xml version="1.0" standalone="no"?><svg xmlns:xlink="http://www.w3.org/1999/xlink" xmlns="http://www.w3.org/2000/svg" viewBox="0 0 2100 1181.2548412083656" preserveAspectRatio="xMaxYMax slice"><g transform="scale(1.9364833462432223)"><rect x="0" y="0" width="1084.4444444444443" height="610" fill="#E6FAF5"/><path d="M 616.78 74.56 A 54.22 54.22 0 0 1  671 128.78 L 616.78 74.56 A 54.22 54.22 0 0 0 671 128.78" fill="#9db7ee"/><path d="M 684.56 74.56 A 54.22 54.22 0 0 1  738.78 128.78 L 684.56 74.56 A 54.22 54.22 0 0 0 738.78 128.78" fill="#d6ebf3"/><path d="M 481.22 142.33 A 54.22 54.22 0 0 1  535.44 196.55 L 481.22 142.33 A 54.22 54.22 0 0 0 535.44 196.55" fill="#5374e7"/><path d="M 549 196.55 A 54.22 54.22 0 0 1  603.22 142.33 L 549 196.55 A 54.22 54.22 0 0 0 603.22 142.33" fill="#ebd6db"/><rect x="616.7777777777778" y="142.33333333333331" width="54.222222222222214" height="54.222222222222214" fill="#E6FAF5"/><path d="M 643.89 169.44 A 27.11 27.11 0 0 1  671 142.33 L 643.89 169.44 A 27.11 27.11 0 0 0 671 142.33" fill="#efb4c2"/><rect x="955.6666666666666" y="142.33333333333331" width="54.222222222222214" height="54.222222222222214" fill="#E6FAF5"/><path d="M 982.78 142.33 A 27.11 27.11 0 0 1  1009.89 169.44 L 982.78 142.33 A 27.11 27.11 0 0 0 1009.89 169.44" fill="#a8c2ef"/><rect x="74.55555555555554" y="210.1111111111111" width="54.222222222222214" height="54.222222222222214" fill="#E6FAF5"/><path d="M 74.56 210.11 A 27.11 27.11 0 0 1  101.67 237.22000000000003 L 74.56 210.11 A 27.11 27.11 0 0 0 101.67 237.22000000000003" fill="#3459e4"/><rect x="210.1111111111111" y="210.1111111111111" width="54.222222222222214" height="54.222222222222214" fill="#E6FAF5"/><path d="M 277.89 210.11 A 54.22 54.22 0 0 1  332.11 264.33000000000004 L 277.89 210.11 A 54.22 54.22 0 0 0 332.11 264.33000000000004" fill="#fa5d82"/><path d="M 345.67 264.33000000000004 A 54.22 54.22 0 0 1  399.89 210.11 L 345.67 264.33000000000004 A 54.22 54.22 0 0 0 399.89 210.11" fill="#2d52e3"/><rect x="413.4444444444444" y="210.1111111111111" width="54.222222222222214" height="54.222222222222214" fill="#E6FAF5"/><path d="M 440.56 237.22 A 27.11 27.11 0 0 1  467.67 264.33 L 440.56 237.22 A 27.11 27.11 0 0 0 467.67 264.33" fill="#95b1ed"/><path d="M 481.22 264.33000000000004 A 54.22 54.22 0 0 1  535.44 210.11 L 481.22 264.33000000000004 A 54.22 54.22 0 0 0 535.44 210.11" fill="#e7efed"/><path d="M 549 210.11 A 54.22 54.22 0 0 1  603.22 264.33000000000004 L 549 210.11 A 54.22 54.22 0 0 0 603.22 264.33000000000004" fill="#f6809c"/><path d="M 616.78 264.33000000000004 A 54.22 54.22 0 0 1  671 210.11 L 616.78 264.33000000000004 A 54.22 54.22 0 0 0 671 210.11" fill="#6484e8"/><path d="M 684.56 264.33000000000004 A 54.22 54.22 0 0 1  738.78 210.11 L 684.56 264.33000000000004 A 54.22 54.22 0 0 0 738.78 210.11" fill="#4265e5"/><rect x="752.3333333333333" y="210.1111111111111" width="54.222222222222214" height="54.222222222222214" fill="#E6FAF5"/><rect x="1023.4444444444443" y="210.1111111111111" width="54.222222222222214" height="54.222222222222214" fill="#E6FAF5"/><path d="M 142.33 332.11 A 54.22 54.22 0 0 1  196.55 277.89 L 142.33 332.11 A 54.22 54.22 0 0 0 196.55 277.89" fill="#e0f5f4"/><path d="M 277.89 332.11 A 54.22 54.22 0 0 1  332.11 277.89 L 277.89 332.11 A 54.22 54.22 0 0 0 332.11 277.89" fill="#f5839e"/><path d="M 345.67 277.89 A 54.22 54.22 0 0 1  399.89 332.11 L 345.67 277.89 A 54.22 54.22 0 0 0 399.89 332.11" fill="#e5faf5"/><rect x="413.4444444444444" y="277.88888888888886" width="54.222222222222214" height="54.222222222222214" fill="#E6FAF5"/><path d="M 413.44 305 A 27.11 27.11 0 0 1  440.55 277.89 L 413.44 305 A 27.11 27.11 0 0 0 440.55 277.89" fill="#809eeb"/><path d="M 440.56 277.89 A 27.11 27.11 0 0 1  467.67 305 L 440.56 277.89 A 27.11 27.11 0 0 0 467.67 305" fill="#e6f7f3"/><path d="M 413.44 332.11 A 27.11 27.11 0 0 1  440.55 305 L 413.44 332.11 A 27.11 27.11 0 0 0 440.55 305" fill="#ead8dc"/><rect x="481.2222222222222" y="277.88888888888886" width="54.222222222222214" height="54.222222222222214" fill="#E6FAF5"/><path d="M 481.22 277.89 A 27.11 27.11 0 0 1  508.33000000000004 305 L 481.22 277.89 A 27.11 27.11 0 0 0 508.33000000000004 305" fill="#eadcdf"/><path d="M 508.33 305 A 27.11 27.11 0 0 1  535.4399999999999 277.89 L 508.33 305 A 27.11 27.11 0 0 0 535.4399999999999 277.89" fill="#4568e5"/><path d="M 481.22 332.11 A 27.11 27.11 0 0 1  508.33000000000004 305 L 481.22 332.11 A 27.11 27.11 0 0 0 508.33000000000004 305" fill="#7492ea"/><path d="M 508.33 305 A 27.11 27.11 0 0 1  535.4399999999999 332.11 L 508.33 305 A 27.11 27.11 0 0 0 535.4399999999999 332.11" fill="#2c51e3"/><rect x="549" y="277.88888888888886" width="54.222222222222214" height="54.222222222222214" fill="#E6FAF5"/><path d="M 549 277.89 A 27.11 27.11 0 0 1  576.11 305 L 549 277.89 A 27.11 27.11 0 0 0 576.11 305" fill="#b4cdf0"/><path d="M 576.11 305 A 27.11 27.11 0 0 1  603.22 277.89 L 576.11 305 A 27.11 27.11 0 0 0 603.22 277.89" fill="#f48ca5"/><path d="M 549 305 A 27.11 27.11 0 0 1  576.11 332.11 L 549 305 A 27.11 27.11 0 0 0 576.11 332.11" fill="#6c8ce9"/><path d="M 576.11 332.11 A 27.11 27.11 0 0 1  603.22 305 L 576.11 332.11 A 27.11 27.11 0 0 0 603.22 305" fill="#6a89e9"/><rect x="616.7777777777778" y="277.88888888888886" width="54.222222222222214" height="54.222222222222214" fill="#E6FAF5"/><path d="M 616.78 305 A 27.11 27.11 0 0 1  643.89 277.89 L 616.78 305 A 27.11 27.11 0 0 0 643.89 277.89" fill="#4b6de6"/><path d="M 643.89 277.89 A 27.11 27.11 0 0 1  671 305 L 643.89 277.89 A 27.11 27.11 0 0 0 671 305" fill="#9fb9ee"/><path d="M 616.78 332.11 A 27.11 27.11 0 0 1  643.89 305 L 616.78 332.11 A 27.11 27.11 0 0 0 643.89 305" fill="#bed6f1"/><path d="M 643.89 332.11 A 27.11 27.11 0 0 1  671 305 L 643.89 332.11 A 27.11 27.11 0 0 0 671 305" fill="#365ae4"/><path d="M 684.56 277.89 A 54.22 54.22 0 0 1  738.78 332.11 L 684.56 277.89 A 54.22 54.22 0 0 0 738.78 332.11" fill="#a1bbee"/><path d="M 820.11 332.11 A 54.22 54.22 0 0 1  874.33 277.89 L 820.11 332.11 A 54.22 54.22 0 0 0 874.33 277.89" fill="#eadbde"/><rect x="887.8888888888889" y="277.88888888888886" width="54.222222222222214" height="54.222222222222214" fill="#E6FAF5"/><path d="M 887.89 277.89 A 27.11 27.11 0 0 1  915 305 L 887.89 277.89 A 27.11 27.11 0 0 0 915 305" fill="#4668e5"/><path d="M 915 305 A 27.11 27.11 0 0 1  942.11 277.89 L 915 305 A 27.11 27.11 0 0 0 942.11 277.89" fill="#fd436f"/><path d="M 887.89 305 A 27.11 27.11 0 0 1  915 332.11 L 887.89 305 A 27.11 27.11 0 0 0 915 332.11" fill="#3358e4"/><rect x="955.6666666666666" y="277.88888888888886" width="54.222222222222214" height="54.222222222222214" fill="#E6FAF5"/><rect x="210.1111111111111" y="345.66666666666663" width="54.222222222222214" height="54.222222222222214" fill="#E6FAF5"/><path d="M 345.67 345.67 A 54.22 54.22 0 0 1  399.89 399.89 L 345.67 345.67 A 54.22 54.22 0 0 0 399.89 399.89" fill="#eebbc7"/><rect x="413.4444444444444" y="345.66666666666663" width="54.222222222222214" height="54.222222222222214" fill="#E6FAF5"/><path d="M 413.44 372.78000000000003 A 27.11 27.11 0 0 1  440.55 345.67 L 413.44 372.78000000000003 A 27.11 27.11 0 0 0 440.55 345.67" fill="#eadbde"/><path d="M 413.44 372.78 A 27.11 27.11 0 0 1  440.55 399.89 L 413.44 372.78 A 27.11 27.11 0 0 0 440.55 399.89" fill="#99b4ee"/><path d="M 440.56 399.89 A 27.11 27.11 0 0 1  467.67 372.78 L 440.56 399.89 A 27.11 27.11 0 0 0 467.67 372.78" fill="#f48aa3"/><rect x="481.2222222222222" y="345.66666666666663" width="54.222222222222214" height="54.222222222222214" fill="#E6FAF5"/><path d="M 481.22 372.78000000000003 A 27.11 27.11 0 0 1  508.33000000000004 345.67 L 481.22 372.78000000000003 A 27.11 27.11 0 0 0 508.33000000000004 345.67" fill="#fd4873"/><path d="M 508.33 372.78000000000003 A 27.11 27.11 0 0 1  535.4399999999999 345.67 L 508.33 372.78000000000003 A 27.11 27.11 0 0 0 535.4399999999999 345.67" fill="#819feb"/><path d="M 481.22 399.89 A 27.11 27.11 0 0 1  508.33000000000004 372.78 L 481.22 399.89 A 27.11 27.11 0 0 0 508.33000000000004 372.78" fill="#2349e2"/><path d="M 508.33 372.78 A 27.11 27.11 0 0 1  535.4399999999999 399.89 L 508.33 372.78 A 27.11 27.11 0 0 0 535.4399999999999 399.89" fill="#edc7cf"/><path d="M 549 345.67 A 54.22 54.22 0 0 1  603.22 399.89 L 549 345.67 A 54.22 54.22 0 0 0 603.22 399.89" fill="#d5ebf3"/><rect x="616.7777777777778" y="345.66666666666663" width="54.222222222222214" height="54.222222222222214" fill="#E6FAF5"/><path d="M 616.78 372.78000000000003 A 27.11 27.11 0 0 1  643.89 345.67 L 616.78 372.78000000000003 A 27.11 27.11 0 0 0 643.89 345.67" fill="#f96688"/><path d="M 643.89 372.78000000000003 A 27.11 27.11 0 0 1  671 345.67 L 643.89 372.78000000000003 A 27.11 27.11 0 0 0 671 345.67" fill="#6383e8"/><path d="M 616.78 372.78 A 27.11 27.11 0 0 1  643.89 399.89 L 616.78 372.78 A 27.11 27.11 0 0 0 643.89 399.89" fill="#5879e7"/><path d="M 643.89 399.89 A 27.11 27.11 0 0 1  671 372.78 L 643.89 399.89 A 27.11 27.11 0 0 0 671 372.78" fill="#f5809c"/><path d="M 820.11 345.67 A 54.22 54.22 0 0 1  874.33 399.89 L 820.11 345.67 A 54.22 54.22 0 0 0 874.33 399.89" fill="#eccdd4"/><path d="M 549 413.44 A 54.22 54.22 0 0 1  603.22 467.65999999999997 L 549 413.44 A 54.22 54.22 0 0 0 603.22 467.65999999999997" fill="#ebcfd6"/><rect x="616.7777777777778" y="413.4444444444444" width="54.222222222222214" height="54.222222222222214" fill="#E6FAF5"/><path d="M 616.78 413.44 A 27.11 27.11 0 0 1  643.89 440.55 L 616.78 413.44 A 27.11 27.11 0 0 0 643.89 440.55" fill="#efb1c0"/><path d="M 616.78 440.56 A 27.11 27.11 0 0 1  643.89 467.67 L 616.78 440.56 A 27.11 27.11 0 0 0 643.89 467.67" fill="#eebac6"/><path d="M 643.89 440.56 A 27.11 27.11 0 0 1  671 467.67 L 643.89 440.56 A 27.11 27.11 0 0 0 671 467.67" fill="#fc4f78"/><path d="M 684.56 467.65999999999997 A 54.22 54.22 0 0 1  738.78 413.44 L 684.56 467.65999999999997 A 54.22 54.22 0 0 0 738.78 413.44" fill="#9bb6ee"/><rect x="887.8888888888889" y="413.4444444444444" width="54.222222222222214" height="54.222222222222214" fill="#E6FAF5"/><path d="M 887.89 413.44 A 27.11 27.11 0 0 1  915 440.55 L 887.89 413.44 A 27.11 27.11 0 0 0 915 440.55" fill="#3c5fe4"/><path d="M 887.89 440.56 A 27.11 27.11 0 0 1  915 467.67 L 887.89 440.56 A 27.11 27.11 0 0 0 915 467.67" fill="#a9c3ef"/><path d="M 345.67 481.22 A 54.22 54.22 0 0 1  399.89 535.44 L 345.67 481.22 A 54.22 54.22 0 0 0 399.89 535.44" fill="#eebac7"/><rect x="413.4444444444444" y="481.2222222222222" width="54.222222222222214" height="54.222222222222214" fill="#E6FAF5"/><path d="M 549 481.22 A 54.22 54.22 0 0 1  603.22 535.44 L 549 481.22 A 54.22 54.22 0 0 0 603.22 535.44" fill="#e8eceb"/><rect x="684.5555555555555" y="481.2222222222222" width="54.222222222222214" height="54.222222222222214" fill="#E6FAF5"/><path d="M 711.67 508.33000000000004 A 27.11 27.11 0 0 1  738.78 481.22 L 711.67 508.33000000000004 A 27.11 27.11 0 0 0 738.78 481.22" fill="#ebd0d7"/><path d="M 684.56 535.4399999999999 A 27.11 27.11 0 0 1  711.67 508.33 L 684.56 535.4399999999999 A 27.11 27.11 0 0 0 711.67 508.33" fill="#f96286"/><path d="M 711.67 508.33 A 27.11 27.11 0 0 1  738.78 535.4399999999999 L 711.67 508.33 A 27.11 27.11 0 0 0 738.78 535.4399999999999" fill="#ebd3d8"/><rect x="752.3333333333333" y="481.2222222222222" width="54.222222222222214" height="54.222222222222214" fill="#E6FAF5"/><path d="M 752.33 481.22 A 27.11 27.11 0 0 1  779.44 508.33000000000004 L 752.33 481.22 A 27.11 27.11 0 0 0 779.44 508.33000000000004" fill="#f5819d"/><path d="M 752.33 508.33 A 27.11 27.11 0 0 1  779.44 535.4399999999999 L 752.33 508.33 A 27.11 27.11 0 0 0 779.44 535.4399999999999" fill="#eadade"/><path d="M 779.44 508.33 A 27.11 27.11 0 0 1  806.5500000000001 535.4399999999999 L 779.44 508.33 A 27.11 27.11 0 0 0 806.5500000000001 535.4399999999999" fill="#f391a9"/><path d="M 413.44 603.22 A 54.22 54.22 0 0 1  467.65999999999997 549 L 413.44 603.22 A 54.22 54.22 0 0 0 467.65999999999997 549" fill="#f0adbc"/><rect x="752.3333333333333" y="549" width="54.222222222222214" height="54.222222222222214" fill="#E6FAF5"/><path d="M 779.44 549 A 27.11 27.11 0 0 1  806.5500000000001 576.11 L 779.44 549 A 27.11 27.11 0 0 0 806.5500000000001 576.11" fill="#efb7c4"/></g></svg>