<?xml version="1.0" standalone="no"?><svg xmlns:xlink="http://www.w3.org/1999/xlink" xmlns="http://www.w3.org/2000/svg" viewBox="0 0 2100 787.5" preserveAspectRatio="xMaxYMax slice"><g transform="scale(1.390728476821192)"><rect x="0" y="0" width="1510" height="566.25" fill="#E6FAF5"/><rect x="471.875" y="0" width="94.375" height="94.375" fill="#E6FAF5"/><rect x="660.625" y="0" width="94.375" height="94.375" fill="#E6FAF5"/><path d="M 707.81 0 A 47.19 47.19 0 0 1  755 47.19 L 707.81 0 A 47.19 47.19 0 0 0 755 47.19" fill="#e0f5f4"/><path d="M 943.75 94.38 A 94.38 94.38 0 0 1  1038.13 0 L 943.75 94.38 A 94.38 94.38 0 0 0 1038.13 0" fill="#6887e9"/><path d="M 1038.13 0 A 94.38 94.38 0 0 1  1132.5100000000002 94.38 L 1038.13 0 A 94.38 94.38 0 0 0 1132.5100000000002 94.38" fill="#47fece"/><rect x="1321.25" y="0" width="94.375" height="94.375" fill="#E6FAF5"/><path d="M 1321.25 47.19 A 47.19 47.19 0 0 1  1368.44 0 L 1321.25 47.19 A 47.19 47.19 0 0 0 1368.44 0" fill="#d2fbf0"/><path d="M 1321.25 94.38 A 47.19 47.19 0 0 1  1368.44 47.19 L 1321.25 94.38 A 47.19 47.19 0 0 0 1368.44 47.19" fill="#c0fbec"/><rect x="1415.625" y="0" width="94.375" height="94.375" fill="#E6FAF5"/><path d="M 1415.63 47.19 A 47.19 47.19 0 0 1  1462.8200000000002 0 L 1415.63 47.19 A 47.19 47.19 0 0 0 1462.8200000000002 0" fill="#d1e7f3"/><path d="M 1462.81 47.19 A 47.19 47.19 0 0 1  1510 94.38 L 1462.81 47.19 A 47.19 47.19 0 0 0 1510 94.38" fill="#71fdd8"/><path d="M 188.75 188.76 A 94.38 94.38 0 0 1  283.13 94.38 L 188.75 188.76 A 94.38 94.38 0 0 0 283.13 94.38" fill="#d3e8f3"/><path d="M 471.88 94.38 A 94.38 94.38 0 0 1  566.26 188.76 L 471.88 94.38 A 94.38 94.38 0 0 0 566.26 188.76" fill="#5afed3"/><rect x="943.75" y="94.375" width="94.375" height="94.375" fill="#E6FAF5"/><path d="M 1321.25 94.38 A 94.38 94.38 0 0 1  1415.63 188.76 L 1321.25 94.38 A 94.38 94.38 0 0 0 1415.63 188.76" fill="#9cfce3"/><rect x="1415.625" y="94.375" width="94.375" height="94.375" fill="#E6FAF5"/><path d="M 1415.63 188.75 A 47.19 47.19 0 0 1  1462.8200000000002 141.56 L 1415.63 188.75 A 47.19 47.19 0 0 0 1462.8200000000002 141.56" fill="#a0fce4"/><rect x="0" y="188.75" width="94.375" height="94.375" fill="#E6FAF5"/><path d="M 0 188.75 A 47.19 47.19 0 0 1  47.19 235.94 L 0 188.75 A 47.19 47.19 0 0 0 47.19 235.94" fill="#51fed0"/><path d="M 47.19 235.94 A 47.19 47.19 0 0 1  94.38 188.75 L 47.19 235.94 A 47.19 47.19 0 0 0 94.38 188.75" fill="#e1faf4"/><path d="M 47.19 235.94 A 47.19 47.19 0 0 1  94.38 283.13 L 47.19 235.94 A 47.19 47.19 0 0 0 94.38 283.13" fill="#5b7ce8"/><rect x="94.375" y="188.75" width="94.375" height="94.375" fill="#E6FAF5"/><rect x="283.125" y="188.75" width="94.375" height="94.375" fill="#E6FAF5"/><path d="M 283.13 235.94 A 47.19 47.19 0 0 1  330.32 188.75 L 283.13 235.94 A 47.19 47.19 0 0 0 330.32 188.75" fill="#6bfdd7"/><path d="M 377.5 188.75 A 94.38 94.38 0 0 1  471.88 283.13 L 377.5 188.75 A 94.38 94.38 0 0 0 471.88 283.13" fill="#c5fbed"/><rect x="1132.5" y="188.75" width="94.375" height="94.375" fill="#E6FAF5"/><path d="M 1132.5 188.75 A 47.19 47.19 0 0 1  1179.69 235.94 L 1132.5 188.75 A 47.19 47.19 0 0 0 1179.69 235.94" fill="#254be2"/><path d="M 1179.69 188.75 A 47.19 47.19 0 0 1  1226.88 235.94 L 1179.69 188.75 A 47.19 47.19 0 0 0 1226.88 235.94" fill="#1940e1"/><path d="M 0 283.13 A 94.38 94.38 0 0 1  94.38 377.51 L 0 283.13 A 94.38 94.38 0 0 0 94.38 377.51" fill="#4dfecf"/><path d="M 94.38 377.51 A 94.38 94.38 0 0 1  188.76 283.13 L 94.38 377.51 A 94.38 94.38 0 0 0 188.76 283.13" fill="#3d61e5"/><rect x="377.5" y="283.125" width="94.375" height="94.375" fill="#E6FAF5"/><path d="M 424.69 330.32 A 47.19 47.19 0 0 1  471.88 283.13 L 424.69 330.32 A 47.19 47.19 0 0 0 471.88 283.13" fill="#73fdd9"/><rect x="849.375" y="283.125" width="94.375" height="94.375" fill="#E6FAF5"/><path d="M 849.38 283.13 A 47.19 47.19 0 0 1  896.5699999999999 330.32 L 849.38 283.13 A 47.19 47.19 0 0 0 896.5699999999999 330.32" fill="#1f46e2"/><rect x="943.75" y="283.125" width="94.375" height="94.375" fill="#E6FAF5"/><path d="M 990.94 283.13 A 47.19 47.19 0 0 1  1038.13 330.32 L 990.94 283.13 A 47.19 47.19 0 0 0 1038.13 330.32" fill="#92aeed"/><path d="M 990.94 377.5 A 47.19 47.19 0 0 1  1038.13 330.31 L 990.94 377.5 A 47.19 47.19 0 0 0 1038.13 330.31" fill="#4ffed0"/><path d="M 1415.63 283.13 A 94.38 94.38 0 0 1  1510.0100000000002 377.51 L 1415.63 283.13 A 94.38 94.38 0 0 0 1510.0100000000002 377.51" fill="#3e62e5"/><path d="M 0 377.5 A 94.38 94.38 0 0 1  94.38 471.88 L 0 377.5 A 94.38 94.38 0 0 0 94.38 471.88" fill="#64fed5"/><path d="M 283.13 471.88 A 94.38 94.38 0 0 1  377.51 377.5 L 283.13 471.88 A 94.38 94.38 0 0 0 377.51 377.5" fill="#69fdd6"/><path d="M 660.63 471.88 A 94.38 94.38 0 0 1  755.01 377.5 L 660.63 471.88 A 94.38 94.38 0 0 0 755.01 377.5" fill="#3458e4"/><rect x="755" y="377.5" width="94.375" height="94.375" fill="#E6FAF5"/><path d="M 755 424.69 A 47.19 47.19 0 0 1  802.19 377.5 L 755 424.69 A 47.19 47.19 0 0 0 802.19 377.5" fill="#95b1ed"/><path d="M 755 424.69 A 47.19 47.19 0 0 1  802.19 471.88 L 755 424.69 A 47.19 47.19 0 0 0 802.19 471.88" fill="#b8fbea"/><path d="M 802.19 471.88 A 47.19 47.19 0 0 1  849.3800000000001 424.69 L 802.19 471.88 A 47.19 47.19 0 0 0 849.3800000000001 424.69" fill="#d9faf2"/><rect x="849.375" y="377.5" width="94.375" height="94.375" fill="#E6FAF5"/><path d="M 896.56 377.5 A 47.19 47.19 0 0 1  943.75 424.69 L 896.56 377.5 A 47.19 47.19 0 0 0 943.75 424.69" fill="#4afecf"/><path d="M 849.38 424.69 A 47.19 47.19 0 0 1  896.5699999999999 471.88 L 849.38 424.69 A 47.19 47.19 0 0 0 896.5699999999999 471.88" fill="#b4cdf0"/><path d="M 1132.5 377.5 A 94.38 94.38 0 0 1  1226.88 471.88 L 1132.5 377.5 A 94.38 94.38 0 0 0 1226.88 471.88" fill="#a8fce6"/><rect x="0" y="471.875" width="94.375" height="94.375" fill="#E6FAF5"/><path d="M 47.19 471.88 A 47.19 47.19 0 0 1  94.38 519.0699999999999 L 47.19 471.88 A 47.19 47.19 0 0 0 94.38 519.0699999999999" fill="#65fed5"/><path d="M 0 566.25 A 47.19 47.19 0 0 1  47.19 519.06 L 0 566.25 A 47.19 47.19 0 0 0 47.19 519.06" fill="#375be4"/><rect x="94.375" y="471.875" width="94.375" height="94.375" fill="#E6FAF5"/><rect x="188.75" y="471.875" width="94.375" height="94.375" fill="#E6FAF5"/><path d="M 188.75 519.0699999999999 A 47.19 47.19 0 0 1  235.94 471.88 L 188.75 519.0699999999999 A 47.19 47.19 0 0 0 235.94 471.88" fill="#92aeed"/><path d="M 188.75 566.25 A 47.19 47.19 0 0 1  235.94 519.06 L 188.75 566.25 A 47.19 47.19 0 0 0 235.94 519.06" fill="#49fecf"/><path d="M 471.88 471.88 A 94.38 94.38 0 0 1  566.26 566.26 L 471.88 471.88 A 94.38 94.38 0 0 0 566.26 566.26" fill="#b0c9f0"/><rect x="660.625" y="471.875" width="94.375" height="94.375" fill="#E6FAF5"/><path d="M 707.81 519.0699999999999 A 47.19 47.19 0 0 1  755 471.88 L 707.81 519.0699999999999 A 47.19 47.19 0 0 0 755 471.88" fill="#5677e7"/><path d="M 755 566.26 A 94.38 94.38 0 0 1  849.38 471.88 L 755 566.26 A 94.38 94.38 0 0 0 849.38 471.88" fill="#87a4ec"/><rect x="849.375" y="471.875" width="94.375" height="94.375" fill="#E6FAF5"/><path d="M 849.38 471.88 A 47.19 47.19 0 0 1  896.5699999999999 519.0699999999999 L 849.38 471.88 A 47.19 47.19 0 0 0 896.5699999999999 519.0699999999999" fill="#58fed2"/><path d="M 849.38 566.25 A 47.19 47.19 0 0 1  896.5699999999999 519.06 L 849.38 566.25 A 47.19 47.19 0 0 0 896.5699999999999 519.06" fill="#71fdd8"/><path d="M 896.56 519.06 A 47.19 47.19 0 0 1  943.75 566.25 L 896.56 519.06 A 47.19 47.19 0 0 0 943.75 566.25" fill="#defaf3"/></g></svg>