<?xml version="1.0" standalone="no"?><svg xmlns:xlink="http://www.w3.org/1999/xlink" xmlns="http://www.w3.org/2000/svg" viewBox="0 0 2300 862.5" preserveAspectRatio="xMaxYMax slice"><g transform="scale(1.5231788079470199)"><rect x="0" y="0" width="1510" height="566.25" fill="#E6FAF5"/><rect x="0" y="0" width="94.375" height="94.375" fill="#E6FAF5"/><path d="M 0 47.19 A 47.19 47.19 0 0 1  47.19 0 L 0 47.19 A 47.19 47.19 0 0 0 47.19 0" fill="#34ffc9"/><path d="M 47.19 0 A 47.19 47.19 0 0 1  94.38 47.19 L 47.19 0 A 47.19 47.19 0 0 0 94.38 47.19" fill="#5efed4"/><rect x="94.375" y="0" width="94.375" height="94.375" fill="#E6FAF5"/><path d="M 94.38 47.19 A 47.19 47.19 0 0 1  141.57 0 L 94.38 47.19 A 47.19 47.19 0 0 0 141.57 0" fill="#2147e2"/><path d="M 94.38 47.19 A 47.19 47.19 0 0 1  141.57 94.38 L 94.38 47.19 A 47.19 47.19 0 0 0 141.57 94.38" fill="#5e7fe8"/><rect x="283.125" y="0" width="94.375" height="94.375" fill="#E6FAF5"/><path d="M 283.13 94.38 A 47.19 47.19 0 0 1  330.32 47.19 L 283.13 94.38 A 47.19 47.19 0 0 0 330.32 47.19" fill="#d7edf4"/><path d="M 377.5 0 A 94.38 94.38 0 0 1  471.88 94.38 L 377.5 0 A 94.38 94.38 0 0 0 471.88 94.38" fill="#70fdd8"/><path d="M 471.88 94.38 A 94.38 94.38 0 0 1  566.26 0 L 471.88 94.38 A 94.38 94.38 0 0 0 566.26 0" fill="#5274e7"/><path d="M 94.38 94.38 A 94.38 94.38 0 0 1  188.76 188.76 L 94.38 94.38 A 94.38 94.38 0 0 0 188.76 188.76" fill="#a9fce6"/><rect x="188.75" y="94.375" width="94.375" height="94.375" fill="#E6FAF5"/><path d="M 188.75 141.56 A 47.19 47.19 0 0 1  235.94 188.75 L 188.75 141.56 A 47.19 47.19 0 0 0 235.94 188.75" fill="#4d6fe6"/><path d="M 471.88 188.76 A 94.38 94.38 0 0 1  566.26 94.38 L 471.88 188.76 A 94.38 94.38 0 0 0 566.26 94.38" fill="#b4fbe9"/><rect x="660.625" y="94.375" width="94.375" height="94.375" fill="#E6FAF5"/><path d="M 660.63 141.57 A 47.19 47.19 0 0 1  707.8199999999999 94.38 L 660.63 141.57 A 47.19 47.19 0 0 0 707.8199999999999 94.38" fill="#d9eff4"/><path d="M 660.63 188.75 A 47.19 47.19 0 0 1  707.8199999999999 141.56 L 660.63 188.75 A 47.19 47.19 0 0 0 707.8199999999999 141.56" fill="#bbd3f1"/><path d="M 755 94.38 A 94.38 94.38 0 0 1  849.38 188.76 L 755 94.38 A 94.38 94.38 0 0 0 849.38 188.76" fill="#a8c1ef"/><rect x="943.75" y="94.375" width="94.375" height="94.375" fill="#E6FAF5"/><rect x="1132.5" y="94.375" width="94.375" height="94.375" fill="#E6FAF5"/><path d="M 188.75 188.75 A 94.38 94.38 0 0 1  283.13 283.13 L 188.75 188.75 A 94.38 94.38 0 0 0 283.13 283.13" fill="#61fed4"/><rect x="283.125" y="188.75" width="94.375" height="94.375" fill="#E6FAF5"/><path d="M 566.25 283.13 A 94.38 94.38 0 0 1  660.63 188.75 L 566.25 283.13 A 94.38 94.38 0 0 0 660.63 188.75" fill="#3559e4"/><path d="M 660.63 283.13 A 94.38 94.38 0 0 1  755.01 188.75 L 660.63 283.13 A 94.38 94.38 0 0 0 755.01 188.75" fill="#1940e1"/><path d="M 755 188.75 A 94.38 94.38 0 0 1  849.38 283.13 L 755 188.75 A 94.38 94.38 0 0 0 849.38 283.13" fill="#7c9aeb"/><path d="M 943.75 188.75 A 94.38 94.38 0 0 1  1038.13 283.13 L 943.75 188.75 A 94.38 94.38 0 0 0 1038.13 283.13" fill="#375be4"/><rect x="94.375" y="283.125" width="94.375" height="94.375" fill="#E6FAF5"/><path d="M 141.56 283.13 A 47.19 47.19 0 0 1  188.75 330.32 L 141.56 283.13 A 47.19 47.19 0 0 0 188.75 330.32" fill="#97fce2"/><rect x="283.125" y="283.125" width="94.375" height="94.375" fill="#E6FAF5"/><path d="M 330.31 283.13 A 47.19 47.19 0 0 1  377.5 330.32 L 330.31 283.13 A 47.19 47.19 0 0 0 377.5 330.32" fill="#83fddd"/><path d="M 283.13 377.5 A 47.19 47.19 0 0 1  330.32 330.31 L 283.13 377.5 A 47.19 47.19 0 0 0 330.32 330.31" fill="#6f8ee9"/><rect x="471.875" y="283.125" width="94.375" height="94.375" fill="#E6FAF5"/><path d="M 471.88 330.31 A 47.19 47.19 0 0 1  519.0699999999999 377.5 L 471.88 330.31 A 47.19 47.19 0 0 0 519.0699999999999 377.5" fill="#b1fbe8"/><path d="M 660.63 377.51 A 94.38 94.38 0 0 1  755.01 283.13 L 660.63 377.51 A 94.38 94.38 0 0 0 755.01 283.13" fill="#b5cef0"/><path d="M 755 283.13 A 94.38 94.38 0 0 1  849.38 377.51 L 755 283.13 A 94.38 94.38 0 0 0 849.38 377.51" fill="#e6faf5"/><path d="M 1038.13 283.13 A 94.38 94.38 0 0 1  1132.5100000000002 377.51 L 1038.13 283.13 A 94.38 94.38 0 0 0 1132.5100000000002 377.51" fill="#9cfce3"/><rect x="755" y="377.5" width="94.375" height="94.375" fill="#E6FAF5"/><path d="M 755 424.69 A 47.19 47.19 0 0 1  802.19 377.5 L 755 424.69 A 47.19 47.19 0 0 0 802.19 377.5" fill="#aafce6"/><path d="M 755 471.88 A 47.19 47.19 0 0 1  802.19 424.69 L 755 471.88 A 47.19 47.19 0 0 0 802.19 424.69" fill="#9fbaee"/><path d="M 1321.25 471.88 A 94.38 94.38 0 0 1  1415.63 377.5 L 1321.25 471.88 A 94.38 94.38 0 0 0 1415.63 377.5" fill="#48fece"/><rect x="377.5" y="471.875" width="94.375" height="94.375" fill="#E6FAF5"/><rect x="660.625" y="471.875" width="94.375" height="94.375" fill="#E6FAF5"/><path d="M 660.63 471.88 A 47.19 47.19 0 0 1  707.8199999999999 519.0699999999999 L 660.63 471.88 A 47.19 47.19 0 0 0 707.8199999999999 519.0699999999999" fill="#7d9beb"/><path d="M 707.81 471.88 A 47.19 47.19 0 0 1  755 519.0699999999999 L 707.81 471.88 A 47.19 47.19 0 0 0 755 519.0699999999999" fill="#82fddd"/><rect x="943.75" y="471.875" width="94.375" height="94.375" fill="#E6FAF5"/><path d="M 990.94 519.0699999999999 A 47.19 47.19 0 0 1  1038.13 471.88 L 990.94 519.0699999999999 A 47.19 47.19 0 0 0 1038.13 471.88" fill="#4afecf"/><path d="M 943.75 566.25 A 47.19 47.19 0 0 1  990.94 519.06 L 943.75 566.25 A 47.19 47.19 0 0 0 990.94 519.06" fill="#bed5f1"/></g></svg>