<?xml version="1.0" standalone="no"?><svg xmlns:xlink="http://www.w3.org/1999/xlink" xmlns="http://www.w3.org/2000/svg" viewBox="0 0 2200 550" preserveAspectRatio="xMaxYMax slice"><g transform="scale(1.4569536423841059)"><rect x="0" y="0" width="1510" height="377.5" fill="#E6FAF5"/><rect x="0" y="0" width="94.375" height="94.375" fill="#E6FAF5"/><path d="M 0 47.19 A 47.19 47.19 0 0 1  47.19 0 L 0 47.19 A 47.19 47.19 0 0 0 47.19 0" fill="#89a6ec"/><path d="M 47.19 47.19 A 47.19 47.19 0 0 1  94.38 0 L 47.19 47.19 A 47.19 47.19 0 0 0 94.38 0" fill="#47fece"/><rect x="566.25" y="0" width="94.375" height="94.375" fill="#E6FAF5"/><path d="M 613.44 47.19 A 47.19 47.19 0 0 1  660.6300000000001 0 L 613.44 47.19 A 47.19 47.19 0 0 0 660.6300000000001 0" fill="#b0fce8"/><path d="M 566.25 47.19 A 47.19 47.19 0 0 1  613.44 94.38 L 566.25 47.19 A 47.19 47.19 0 0 0 613.44 94.38" fill="#61fed4"/><rect x="755" y="0" width="94.375" height="94.375" fill="#E6FAF5"/><path d="M 1132.5 94.38 A 94.38 94.38 0 0 1  1226.88 0 L 1132.5 94.38 A 94.38 94.38 0 0 0 1226.88 0" fill="#c2fbec"/><path d="M 1226.88 94.38 A 94.38 94.38 0 0 1  1321.2600000000002 0 L 1226.88 94.38 A 94.38 94.38 0 0 0 1321.2600000000002 0" fill="#7a98ea"/><rect x="94.375" y="94.375" width="94.375" height="94.375" fill="#E6FAF5"/><rect x="188.75" y="94.375" width="94.375" height="94.375" fill="#E6FAF5"/><path d="M 235.94 141.57 A 47.19 47.19 0 0 1  283.13 94.38 L 235.94 141.57 A 47.19 47.19 0 0 0 283.13 94.38" fill="#def3f4"/><path d="M 188.75 188.75 A 47.19 47.19 0 0 1  235.94 141.56 L 188.75 188.75 A 47.19 47.19 0 0 0 235.94 141.56" fill="#9bb6ee"/><path d="M 235.94 188.75 A 47.19 47.19 0 0 1  283.13 141.56 L 235.94 188.75 A 47.19 47.19 0 0 0 283.13 141.56" fill="#58fed2"/><rect x="566.25" y="94.375" width="94.375" height="94.375" fill="#E6FAF5"/><path d="M 1415.63 94.38 A 94.38 94.38 0 0 1  1510.0100000000002 188.76 L 1415.63 94.38 A 94.38 94.38 0 0 0 1510.0100000000002 188.76" fill="#78fdda"/><rect x="94.375" y="188.75" width="94.375" height="94.375" fill="#E6FAF5"/><path d="M 141.56 235.94 A 47.19 47.19 0 0 1  188.75 188.75 L 141.56 235.94 A 47.19 47.19 0 0 0 188.75 188.75" fill="#dcfaf3"/><path d="M 141.56 235.94 A 47.19 47.19 0 0 1  188.75 283.13 L 141.56 235.94 A 47.19 47.19 0 0 0 188.75 283.13" fill="#b3fbe8"/><rect x="188.75" y="188.75" width="94.375" height="94.375" fill="#E6FAF5"/><path d="M 1132.5 283.13 A 94.38 94.38 0 0 1  1226.88 188.75 L 1132.5 283.13 A 94.38 94.38 0 0 0 1226.88 188.75" fill="#7291ea"/><path d="M 1321.25 188.75 A 94.38 94.38 0 0 1  1415.63 283.13 L 1321.25 188.75 A 94.38 94.38 0 0 0 1415.63 283.13" fill="#9afce2"/><path d="M 1415.63 188.75 A 94.38 94.38 0 0 1  1510.0100000000002 283.13 L 1415.63 188.75 A 94.38 94.38 0 0 0 1510.0100000000002 283.13" fill="#6686e9"/><rect x="0" y="283.125" width="94.375" height="94.375" fill="#E6FAF5"/><rect x="188.75" y="283.125" width="94.375" height="94.375" fill="#E6FAF5"/><path d="M 235.94 377.5 A 47.19 47.19 0 0 1  283.13 330.31 L 235.94 377.5 A 47.19 47.19 0 0 0 283.13 330.31" fill="#e0f5f4"/><rect x="283.125" y="283.125" width="94.375" height="94.375" fill="#E6FAF5"/><path d="M 283.13 330.32 A 47.19 47.19 0 0 1  330.32 283.13 L 283.13 330.32 A 47.19 47.19 0 0 0 330.32 283.13" fill="#b2fbe8"/><path d="M 330.31 330.32 A 47.19 47.19 0 0 1  377.5 283.13 L 330.31 330.32 A 47.19 47.19 0 0 0 377.5 283.13" fill="#4265e5"/><path d="M 330.31 330.31 A 47.19 47.19 0 0 1  377.5 377.5 L 330.31 330.31 A 47.19 47.19 0 0 0 377.5 377.5" fill="#b1fbe8"/><rect x="566.25" y="283.125" width="94.375" height="94.375" fill="#E6FAF5"/><path d="M 613.44 330.31 A 47.19 47.19 0 0 1  660.6300000000001 377.5 L 613.44 330.31 A 47.19 47.19 0 0 0 660.6300000000001 377.5" fill="#d2fbf0"/><path d="M 849.38 377.51 A 94.38 94.38 0 0 1  943.76 283.13 L 849.38 377.51 A 94.38 94.38 0 0 0 943.76 283.13" fill="#6d8ce9"/></g></svg>